<?xml version="1.0" encoding="utf-8" standalone="no"?>
<!DOCTYPE svg PUBLIC "-//W3C//DTD SVG 1.1//EN"
  "http://www.w3.org/Graphics/SVG/1.1/DTD/svg11.dtd">
<svg xmlns:xlink="http://www.w3.org/1999/xlink" width="576pt" height="360pt" viewBox="0 0 576 360" xmlns="http://www.w3.org/2000/svg" version="1.1">
 <metadata>
  <rdf:RDF xmlns:dc="http://purl.org/dc/elements/1.1/" xmlns:cc="http://creativecommons.org/ns#" xmlns:rdf="http://www.w3.org/1999/02/22-rdf-syntax-ns#">
   <cc:Work>
    <dc:type rdf:resource="http://purl.org/dc/dcmitype/StillImage"/>
    <dc:date>2025-08-21T16:29:38.923065</dc:date>
    <dc:format>image/svg+xml</dc:format>
    <dc:creator>
     <cc:Agent>
      <dc:title>Matplotlib v3.9.2, https://matplotlib.org/</dc:title>
     </cc:Agent>
    </dc:creator>
   </cc:Work>
  </rdf:RDF>
 </metadata>
 <defs>
  <style type="text/css">*{stroke-linejoin: round; stroke-linecap: butt}</style>
 </defs>
 <g id="figure_1">
  <g id="patch_1">
   <path d="M 0 360 
L 576 360 
L 576 0 
L 0 0 
z
" style="fill: #ffffff"/>
  </g>
  <g id="axes_1">
   <g id="patch_2">
    <path d="M 43.13 313.72 
L 565.2 313.72 
L 565.2 10.8 
L 43.13 10.8 
z
" style="fill: #ffffff"/>
   </g>
   <g id="patch_3">
    <path d="M 87.200844 313.72 
L 392.306688 313.72 
L 392.306688 10.8 
L 87.200844 10.8 
z
" clip-path="url(#pa06b080d29)" style="fill: #808080; opacity: 0.15; stroke: #808080; stroke-linejoin: miter"/>
   </g>
   <g id="matplotlib.axis_1">
    <g id="xtick_1">
     <g id="line2d_1">
      <defs>
       <path id="mca83fc3fe0" d="M 0 0 
L 0 3.5 
" style="stroke: #000000; stroke-width: 0.8"/>
      </defs>
      <g>
       <use xlink:href="#mca83fc3fe0" x="66.860455" y="313.72" style="stroke: #000000; stroke-width: 0.8"/>
      </g>
     </g>
     <g id="text_1">
      <!-- 0 -->
      <g transform="translate(63.042955 329.838125) scale(0.12 -0.12)">
       <defs>
        <path id="DejaVuSans-30" d="M 2034 4250 
Q 1547 4250 1301 3770 
Q 1056 3291 1056 2328 
Q 1056 1369 1301 889 
Q 1547 409 2034 409 
Q 2525 409 2770 889 
Q 3016 1369 3016 2328 
Q 3016 3291 2770 3770 
Q 2525 4250 2034 4250 
z
M 2034 4750 
Q 2819 4750 3233 4129 
Q 3647 3509 3647 2328 
Q 3647 1150 3233 529 
Q 2819 -91 2034 -91 
Q 1250 -91 836 529 
Q 422 1150 422 2328 
Q 422 3509 836 4129 
Q 1250 4750 2034 4750 
z
" transform="scale(0.015625)"/>
       </defs>
       <use xlink:href="#DejaVuSans-30"/>
      </g>
     </g>
    </g>
    <g id="xtick_2">
     <g id="line2d_2">
      <g>
       <use xlink:href="#mca83fc3fe0" x="134.661753" y="313.72" style="stroke: #000000; stroke-width: 0.8"/>
      </g>
     </g>
     <g id="text_2">
      <!-- 200 -->
      <g transform="translate(123.209253 329.838125) scale(0.12 -0.12)">
       <defs>
        <path id="DejaVuSans-32" d="M 1228 531 
L 3431 531 
L 3431 0 
L 469 0 
L 469 531 
Q 828 903 1448 1529 
Q 2069 2156 2228 2338 
Q 2531 2678 2651 2914 
Q 2772 3150 2772 3378 
Q 2772 3750 2511 3984 
Q 2250 4219 1831 4219 
Q 1534 4219 1204 4116 
Q 875 4013 500 3803 
L 500 4441 
Q 881 4594 1212 4672 
Q 1544 4750 1819 4750 
Q 2544 4750 2975 4387 
Q 3406 4025 3406 3419 
Q 3406 3131 3298 2873 
Q 3191 2616 2906 2266 
Q 2828 2175 2409 1742 
Q 1991 1309 1228 531 
z
" transform="scale(0.015625)"/>
       </defs>
       <use xlink:href="#DejaVuSans-32"/>
       <use xlink:href="#DejaVuSans-30" x="63.623047"/>
       <use xlink:href="#DejaVuSans-30" x="127.246094"/>
      </g>
     </g>
    </g>
    <g id="xtick_3">
     <g id="line2d_3">
      <g>
       <use xlink:href="#mca83fc3fe0" x="202.463052" y="313.72" style="stroke: #000000; stroke-width: 0.8"/>
      </g>
     </g>
     <g id="text_3">
      <!-- 400 -->
      <g transform="translate(191.010552 329.838125) scale(0.12 -0.12)">
       <defs>
        <path id="DejaVuSans-34" d="M 2419 4116 
L 825 1625 
L 2419 1625 
L 2419 4116 
z
M 2253 4666 
L 3047 4666 
L 3047 1625 
L 3713 1625 
L 3713 1100 
L 3047 1100 
L 3047 0 
L 2419 0 
L 2419 1100 
L 313 1100 
L 313 1709 
L 2253 4666 
z
" transform="scale(0.015625)"/>
       </defs>
       <use xlink:href="#DejaVuSans-34"/>
       <use xlink:href="#DejaVuSans-30" x="63.623047"/>
       <use xlink:href="#DejaVuSans-30" x="127.246094"/>
      </g>
     </g>
    </g>
    <g id="xtick_4">
     <g id="line2d_4">
      <g>
       <use xlink:href="#mca83fc3fe0" x="270.264351" y="313.72" style="stroke: #000000; stroke-width: 0.8"/>
      </g>
     </g>
     <g id="text_4">
      <!-- 600 -->
      <g transform="translate(258.811851 329.838125) scale(0.12 -0.12)">
       <defs>
        <path id="DejaVuSans-36" d="M 2113 2584 
Q 1688 2584 1439 2293 
Q 1191 2003 1191 1497 
Q 1191 994 1439 701 
Q 1688 409 2113 409 
Q 2538 409 2786 701 
Q 3034 994 3034 1497 
Q 3034 2003 2786 2293 
Q 2538 2584 2113 2584 
z
M 3366 4563 
L 3366 3988 
Q 3128 4100 2886 4159 
Q 2644 4219 2406 4219 
Q 1781 4219 1451 3797 
Q 1122 3375 1075 2522 
Q 1259 2794 1537 2939 
Q 1816 3084 2150 3084 
Q 2853 3084 3261 2657 
Q 3669 2231 3669 1497 
Q 3669 778 3244 343 
Q 2819 -91 2113 -91 
Q 1303 -91 875 529 
Q 447 1150 447 2328 
Q 447 3434 972 4092 
Q 1497 4750 2381 4750 
Q 2619 4750 2861 4703 
Q 3103 4656 3366 4563 
z
" transform="scale(0.015625)"/>
       </defs>
       <use xlink:href="#DejaVuSans-36"/>
       <use xlink:href="#DejaVuSans-30" x="63.623047"/>
       <use xlink:href="#DejaVuSans-30" x="127.246094"/>
      </g>
     </g>
    </g>
    <g id="xtick_5">
     <g id="line2d_5">
      <g>
       <use xlink:href="#mca83fc3fe0" x="338.065649" y="313.72" style="stroke: #000000; stroke-width: 0.8"/>
      </g>
     </g>
     <g id="text_5">
      <!-- 800 -->
      <g transform="translate(326.613149 329.838125) scale(0.12 -0.12)">
       <defs>
        <path id="DejaVuSans-38" d="M 2034 2216 
Q 1584 2216 1326 1975 
Q 1069 1734 1069 1313 
Q 1069 891 1326 650 
Q 1584 409 2034 409 
Q 2484 409 2743 651 
Q 3003 894 3003 1313 
Q 3003 1734 2745 1975 
Q 2488 2216 2034 2216 
z
M 1403 2484 
Q 997 2584 770 2862 
Q 544 3141 544 3541 
Q 544 4100 942 4425 
Q 1341 4750 2034 4750 
Q 2731 4750 3128 4425 
Q 3525 4100 3525 3541 
Q 3525 3141 3298 2862 
Q 3072 2584 2669 2484 
Q 3125 2378 3379 2068 
Q 3634 1759 3634 1313 
Q 3634 634 3220 271 
Q 2806 -91 2034 -91 
Q 1263 -91 848 271 
Q 434 634 434 1313 
Q 434 1759 690 2068 
Q 947 2378 1403 2484 
z
M 1172 3481 
Q 1172 3119 1398 2916 
Q 1625 2713 2034 2713 
Q 2441 2713 2670 2916 
Q 2900 3119 2900 3481 
Q 2900 3844 2670 4047 
Q 2441 4250 2034 4250 
Q 1625 4250 1398 4047 
Q 1172 3844 1172 3481 
z
" transform="scale(0.015625)"/>
       </defs>
       <use xlink:href="#DejaVuSans-38"/>
       <use xlink:href="#DejaVuSans-30" x="63.623047"/>
       <use xlink:href="#DejaVuSans-30" x="127.246094"/>
      </g>
     </g>
    </g>
    <g id="xtick_6">
     <g id="line2d_6">
      <g>
       <use xlink:href="#mca83fc3fe0" x="405.866948" y="313.72" style="stroke: #000000; stroke-width: 0.8"/>
      </g>
     </g>
     <g id="text_6">
      <!-- 1000 -->
      <g transform="translate(390.596948 329.838125) scale(0.12 -0.12)">
       <defs>
        <path id="DejaVuSans-31" d="M 794 531 
L 1825 531 
L 1825 4091 
L 703 3866 
L 703 4441 
L 1819 4666 
L 2450 4666 
L 2450 531 
L 3481 531 
L 3481 0 
L 794 0 
L 794 531 
z
" transform="scale(0.015625)"/>
       </defs>
       <use xlink:href="#DejaVuSans-31"/>
       <use xlink:href="#DejaVuSans-30" x="63.623047"/>
       <use xlink:href="#DejaVuSans-30" x="127.246094"/>
       <use xlink:href="#DejaVuSans-30" x="190.869141"/>
      </g>
     </g>
    </g>
    <g id="xtick_7">
     <g id="line2d_7">
      <g>
       <use xlink:href="#mca83fc3fe0" x="473.668247" y="313.72" style="stroke: #000000; stroke-width: 0.8"/>
      </g>
     </g>
     <g id="text_7">
      <!-- 1200 -->
      <g transform="translate(458.398247 329.838125) scale(0.12 -0.12)">
       <use xlink:href="#DejaVuSans-31"/>
       <use xlink:href="#DejaVuSans-32" x="63.623047"/>
       <use xlink:href="#DejaVuSans-30" x="127.246094"/>
       <use xlink:href="#DejaVuSans-30" x="190.869141"/>
      </g>
     </g>
    </g>
    <g id="xtick_8">
     <g id="line2d_8">
      <g>
       <use xlink:href="#mca83fc3fe0" x="541.469545" y="313.72" style="stroke: #000000; stroke-width: 0.8"/>
      </g>
     </g>
     <g id="text_8">
      <!-- 1400 -->
      <g transform="translate(526.199545 329.838125) scale(0.12 -0.12)">
       <use xlink:href="#DejaVuSans-31"/>
       <use xlink:href="#DejaVuSans-34" x="63.623047"/>
       <use xlink:href="#DejaVuSans-30" x="127.246094"/>
       <use xlink:href="#DejaVuSans-30" x="190.869141"/>
      </g>
     </g>
    </g>
    <g id="text_9">
     <!-- time (min) -->
     <g transform="translate(267.464219 346.971563) scale(0.14 -0.14)">
      <defs>
       <path id="DejaVuSans-74" d="M 1172 4494 
L 1172 3500 
L 2356 3500 
L 2356 3053 
L 1172 3053 
L 1172 1153 
Q 1172 725 1289 603 
Q 1406 481 1766 481 
L 2356 481 
L 2356 0 
L 1766 0 
Q 1100 0 847 248 
Q 594 497 594 1153 
L 594 3053 
L 172 3053 
L 172 3500 
L 594 3500 
L 594 4494 
L 1172 4494 
z
" transform="scale(0.015625)"/>
       <path id="DejaVuSans-69" d="M 603 3500 
L 1178 3500 
L 1178 0 
L 603 0 
L 603 3500 
z
M 603 4863 
L 1178 4863 
L 1178 4134 
L 603 4134 
L 603 4863 
z
" transform="scale(0.015625)"/>
       <path id="DejaVuSans-6d" d="M 3328 2828 
Q 3544 3216 3844 3400 
Q 4144 3584 4550 3584 
Q 5097 3584 5394 3201 
Q 5691 2819 5691 2113 
L 5691 0 
L 5113 0 
L 5113 2094 
Q 5113 2597 4934 2840 
Q 4756 3084 4391 3084 
Q 3944 3084 3684 2787 
Q 3425 2491 3425 1978 
L 3425 0 
L 2847 0 
L 2847 2094 
Q 2847 2600 2669 2842 
Q 2491 3084 2119 3084 
Q 1678 3084 1418 2786 
Q 1159 2488 1159 1978 
L 1159 0 
L 581 0 
L 581 3500 
L 1159 3500 
L 1159 2956 
Q 1356 3278 1631 3431 
Q 1906 3584 2284 3584 
Q 2666 3584 2933 3390 
Q 3200 3197 3328 2828 
z
" transform="scale(0.015625)"/>
       <path id="DejaVuSans-65" d="M 3597 1894 
L 3597 1613 
L 953 1613 
Q 991 1019 1311 708 
Q 1631 397 2203 397 
Q 2534 397 2845 478 
Q 3156 559 3463 722 
L 3463 178 
Q 3153 47 2828 -22 
Q 2503 -91 2169 -91 
Q 1331 -91 842 396 
Q 353 884 353 1716 
Q 353 2575 817 3079 
Q 1281 3584 2069 3584 
Q 2775 3584 3186 3129 
Q 3597 2675 3597 1894 
z
M 3022 2063 
Q 3016 2534 2758 2815 
Q 2500 3097 2075 3097 
Q 1594 3097 1305 2825 
Q 1016 2553 972 2059 
L 3022 2063 
z
" transform="scale(0.015625)"/>
       <path id="DejaVuSans-20" transform="scale(0.015625)"/>
       <path id="DejaVuSans-28" d="M 1984 4856 
Q 1566 4138 1362 3434 
Q 1159 2731 1159 2009 
Q 1159 1288 1364 580 
Q 1569 -128 1984 -844 
L 1484 -844 
Q 1016 -109 783 600 
Q 550 1309 550 2009 
Q 550 2706 781 3412 
Q 1013 4119 1484 4856 
L 1984 4856 
z
" transform="scale(0.015625)"/>
       <path id="DejaVuSans-6e" d="M 3513 2113 
L 3513 0 
L 2938 0 
L 2938 2094 
Q 2938 2591 2744 2837 
Q 2550 3084 2163 3084 
Q 1697 3084 1428 2787 
Q 1159 2491 1159 1978 
L 1159 0 
L 581 0 
L 581 3500 
L 1159 3500 
L 1159 2956 
Q 1366 3272 1645 3428 
Q 1925 3584 2291 3584 
Q 2894 3584 3203 3211 
Q 3513 2838 3513 2113 
z
" transform="scale(0.015625)"/>
       <path id="DejaVuSans-29" d="M 513 4856 
L 1013 4856 
Q 1481 4119 1714 3412 
Q 1947 2706 1947 2009 
Q 1947 1309 1714 600 
Q 1481 -109 1013 -844 
L 513 -844 
Q 928 -128 1133 580 
Q 1338 1288 1338 2009 
Q 1338 2731 1133 3434 
Q 928 4138 513 4856 
z
" transform="scale(0.015625)"/>
      </defs>
      <use xlink:href="#DejaVuSans-74"/>
      <use xlink:href="#DejaVuSans-69" x="39.208984"/>
      <use xlink:href="#DejaVuSans-6d" x="66.992188"/>
      <use xlink:href="#DejaVuSans-65" x="164.404297"/>
      <use xlink:href="#DejaVuSans-20" x="225.927734"/>
      <use xlink:href="#DejaVuSans-28" x="257.714844"/>
      <use xlink:href="#DejaVuSans-6d" x="296.728516"/>
      <use xlink:href="#DejaVuSans-69" x="394.140625"/>
      <use xlink:href="#DejaVuSans-6e" x="421.923828"/>
      <use xlink:href="#DejaVuSans-29" x="485.302734"/>
     </g>
    </g>
   </g>
   <g id="matplotlib.axis_2">
    <g id="ytick_1">
     <g id="line2d_9">
      <defs>
       <path id="mb678744448" d="M 0 0 
L -3.5 0 
" style="stroke: #000000; stroke-width: 0.8"/>
      </defs>
      <g>
       <use xlink:href="#mb678744448" x="43.13" y="309.21809" style="stroke: #000000; stroke-width: 0.8"/>
      </g>
     </g>
     <g id="text_10">
      <!-- 0 -->
      <g transform="translate(28.495 313.777153) scale(0.12 -0.12)">
       <use xlink:href="#DejaVuSans-30"/>
      </g>
     </g>
    </g>
    <g id="ytick_2">
     <g id="line2d_10">
      <g>
       <use xlink:href="#mb678744448" x="43.13" y="242.241855" style="stroke: #000000; stroke-width: 0.8"/>
      </g>
     </g>
     <g id="text_11">
      <!-- 1 -->
      <g transform="translate(28.495 246.800917) scale(0.12 -0.12)">
       <use xlink:href="#DejaVuSans-31"/>
      </g>
     </g>
    </g>
    <g id="ytick_3">
     <g id="line2d_11">
      <g>
       <use xlink:href="#mb678744448" x="43.13" y="175.26562" style="stroke: #000000; stroke-width: 0.8"/>
      </g>
     </g>
     <g id="text_12">
      <!-- 2 -->
      <g transform="translate(28.495 179.824682) scale(0.12 -0.12)">
       <use xlink:href="#DejaVuSans-32"/>
      </g>
     </g>
    </g>
    <g id="ytick_4">
     <g id="line2d_12">
      <g>
       <use xlink:href="#mb678744448" x="43.13" y="108.289385" style="stroke: #000000; stroke-width: 0.8"/>
      </g>
     </g>
     <g id="text_13">
      <!-- 3 -->
      <g transform="translate(28.495 112.848447) scale(0.12 -0.12)">
       <defs>
        <path id="DejaVuSans-33" d="M 2597 2516 
Q 3050 2419 3304 2112 
Q 3559 1806 3559 1356 
Q 3559 666 3084 287 
Q 2609 -91 1734 -91 
Q 1441 -91 1130 -33 
Q 819 25 488 141 
L 488 750 
Q 750 597 1062 519 
Q 1375 441 1716 441 
Q 2309 441 2620 675 
Q 2931 909 2931 1356 
Q 2931 1769 2642 2001 
Q 2353 2234 1838 2234 
L 1294 2234 
L 1294 2753 
L 1863 2753 
Q 2328 2753 2575 2939 
Q 2822 3125 2822 3475 
Q 2822 3834 2567 4026 
Q 2313 4219 1838 4219 
Q 1578 4219 1281 4162 
Q 984 4106 628 3988 
L 628 4550 
Q 988 4650 1302 4700 
Q 1616 4750 1894 4750 
Q 2613 4750 3031 4423 
Q 3450 4097 3450 3541 
Q 3450 3153 3228 2886 
Q 3006 2619 2597 2516 
z
" transform="scale(0.015625)"/>
       </defs>
       <use xlink:href="#DejaVuSans-33"/>
      </g>
     </g>
    </g>
    <g id="ytick_5">
     <g id="line2d_13">
      <g>
       <use xlink:href="#mb678744448" x="43.13" y="41.31315" style="stroke: #000000; stroke-width: 0.8"/>
      </g>
     </g>
     <g id="text_14">
      <!-- 4 -->
      <g transform="translate(28.495 45.872212) scale(0.12 -0.12)">
       <use xlink:href="#DejaVuSans-34"/>
      </g>
     </g>
    </g>
    <g id="text_15">
     <!-- concentrations (μM) -->
     <g transform="translate(21.583438 232.567344) rotate(-90) scale(0.14 -0.14)">
      <defs>
       <path id="DejaVuSans-63" d="M 3122 3366 
L 3122 2828 
Q 2878 2963 2633 3030 
Q 2388 3097 2138 3097 
Q 1578 3097 1268 2742 
Q 959 2388 959 1747 
Q 959 1106 1268 751 
Q 1578 397 2138 397 
Q 2388 397 2633 464 
Q 2878 531 3122 666 
L 3122 134 
Q 2881 22 2623 -34 
Q 2366 -91 2075 -91 
Q 1284 -91 818 406 
Q 353 903 353 1747 
Q 353 2603 823 3093 
Q 1294 3584 2113 3584 
Q 2378 3584 2631 3529 
Q 2884 3475 3122 3366 
z
" transform="scale(0.015625)"/>
       <path id="DejaVuSans-6f" d="M 1959 3097 
Q 1497 3097 1228 2736 
Q 959 2375 959 1747 
Q 959 1119 1226 758 
Q 1494 397 1959 397 
Q 2419 397 2687 759 
Q 2956 1122 2956 1747 
Q 2956 2369 2687 2733 
Q 2419 3097 1959 3097 
z
M 1959 3584 
Q 2709 3584 3137 3096 
Q 3566 2609 3566 1747 
Q 3566 888 3137 398 
Q 2709 -91 1959 -91 
Q 1206 -91 779 398 
Q 353 888 353 1747 
Q 353 2609 779 3096 
Q 1206 3584 1959 3584 
z
" transform="scale(0.015625)"/>
       <path id="DejaVuSans-72" d="M 2631 2963 
Q 2534 3019 2420 3045 
Q 2306 3072 2169 3072 
Q 1681 3072 1420 2755 
Q 1159 2438 1159 1844 
L 1159 0 
L 581 0 
L 581 3500 
L 1159 3500 
L 1159 2956 
Q 1341 3275 1631 3429 
Q 1922 3584 2338 3584 
Q 2397 3584 2469 3576 
Q 2541 3569 2628 3553 
L 2631 2963 
z
" transform="scale(0.015625)"/>
       <path id="DejaVuSans-61" d="M 2194 1759 
Q 1497 1759 1228 1600 
Q 959 1441 959 1056 
Q 959 750 1161 570 
Q 1363 391 1709 391 
Q 2188 391 2477 730 
Q 2766 1069 2766 1631 
L 2766 1759 
L 2194 1759 
z
M 3341 1997 
L 3341 0 
L 2766 0 
L 2766 531 
Q 2569 213 2275 61 
Q 1981 -91 1556 -91 
Q 1019 -91 701 211 
Q 384 513 384 1019 
Q 384 1609 779 1909 
Q 1175 2209 1959 2209 
L 2766 2209 
L 2766 2266 
Q 2766 2663 2505 2880 
Q 2244 3097 1772 3097 
Q 1472 3097 1187 3025 
Q 903 2953 641 2809 
L 641 3341 
Q 956 3463 1253 3523 
Q 1550 3584 1831 3584 
Q 2591 3584 2966 3190 
Q 3341 2797 3341 1997 
z
" transform="scale(0.015625)"/>
       <path id="DejaVuSans-73" d="M 2834 3397 
L 2834 2853 
Q 2591 2978 2328 3040 
Q 2066 3103 1784 3103 
Q 1356 3103 1142 2972 
Q 928 2841 928 2578 
Q 928 2378 1081 2264 
Q 1234 2150 1697 2047 
L 1894 2003 
Q 2506 1872 2764 1633 
Q 3022 1394 3022 966 
Q 3022 478 2636 193 
Q 2250 -91 1575 -91 
Q 1294 -91 989 -36 
Q 684 19 347 128 
L 347 722 
Q 666 556 975 473 
Q 1284 391 1588 391 
Q 1994 391 2212 530 
Q 2431 669 2431 922 
Q 2431 1156 2273 1281 
Q 2116 1406 1581 1522 
L 1381 1569 
Q 847 1681 609 1914 
Q 372 2147 372 2553 
Q 372 3047 722 3315 
Q 1072 3584 1716 3584 
Q 2034 3584 2315 3537 
Q 2597 3491 2834 3397 
z
" transform="scale(0.015625)"/>
       <path id="DejaVuSans-3bc" d="M 544 -1331 
L 544 3500 
L 1119 3500 
L 1119 1325 
Q 1119 872 1334 640 
Q 1550 409 1972 409 
Q 2434 409 2667 671 
Q 2900 934 2900 1459 
L 2900 3500 
L 3475 3500 
L 3475 806 
Q 3475 619 3529 530 
Q 3584 441 3700 441 
Q 3728 441 3778 458 
Q 3828 475 3916 513 
L 3916 50 
Q 3788 -22 3673 -56 
Q 3559 -91 3450 -91 
Q 3234 -91 3106 31 
Q 2978 153 2931 403 
Q 2775 156 2548 32 
Q 2322 -91 2016 -91 
Q 1697 -91 1473 31 
Q 1250 153 1119 397 
L 1119 -1331 
L 544 -1331 
z
" transform="scale(0.015625)"/>
       <path id="DejaVuSans-4d" d="M 628 4666 
L 1569 4666 
L 2759 1491 
L 3956 4666 
L 4897 4666 
L 4897 0 
L 4281 0 
L 4281 4097 
L 3078 897 
L 2444 897 
L 1241 4097 
L 1241 0 
L 628 0 
L 628 4666 
z
" transform="scale(0.015625)"/>
      </defs>
      <use xlink:href="#DejaVuSans-63"/>
      <use xlink:href="#DejaVuSans-6f" x="54.980469"/>
      <use xlink:href="#DejaVuSans-6e" x="116.162109"/>
      <use xlink:href="#DejaVuSans-63" x="179.541016"/>
      <use xlink:href="#DejaVuSans-65" x="234.521484"/>
      <use xlink:href="#DejaVuSans-6e" x="296.044922"/>
      <use xlink:href="#DejaVuSans-74" x="359.423828"/>
      <use xlink:href="#DejaVuSans-72" x="398.632812"/>
      <use xlink:href="#DejaVuSans-61" x="439.746094"/>
      <use xlink:href="#DejaVuSans-74" x="501.025391"/>
      <use xlink:href="#DejaVuSans-69" x="540.234375"/>
      <use xlink:href="#DejaVuSans-6f" x="568.017578"/>
      <use xlink:href="#DejaVuSans-6e" x="629.199219"/>
      <use xlink:href="#DejaVuSans-73" x="692.578125"/>
      <use xlink:href="#DejaVuSans-20" x="744.677734"/>
      <use xlink:href="#DejaVuSans-28" x="776.464844"/>
      <use xlink:href="#DejaVuSans-3bc" x="815.478516"/>
      <use xlink:href="#DejaVuSans-4d" x="879.101562"/>
      <use xlink:href="#DejaVuSans-29" x="965.380859"/>
     </g>
    </g>
   </g>
   <g id="line2d_14">
    <path d="M 66.860455 24.569091 
L 67.104193 28.418178 
L 67.4432 30.787193 
L 67.782206 31.706852 
L 68.121213 32.073074 
L 68.629722 32.259702 
L 69.816245 32.32575 
L 85.580047 32.329358 
L 87.105576 32.329358 
L 87.614086 118.662783 
L 87.953092 132.433148 
L 88.292099 137.40479 
L 88.631105 139.913297 
L 89.139615 141.858195 
L 89.648125 142.778914 
L 90.156635 143.223701 
L 90.834648 143.484306 
L 92.02117 143.617092 
L 95.580739 143.648006 
L 392.21142 143.64822 
L 392.502773 99.267338 
L 392.84178 62.038772 
L 393.180786 45.334692 
L 393.519793 37.979138 
L 393.858799 34.779203 
L 394.197806 33.392503 
L 394.536812 32.791485 
L 395.045322 32.462208 
L 395.892838 32.346093 
L 399.62191 32.32936 
L 541.469545 32.329358 
L 541.469545 32.329358 
" clip-path="url(#pa06b080d29)" style="fill: none; stroke: #a6cee3; stroke-opacity: 0.7; stroke-width: 2; stroke-linecap: square"/>
   </g>
   <g id="line2d_15">
    <path d="M 66.860455 292.474031 
L 68.290716 292.112142 
L 70.833265 292.084184 
L 87.275079 291.976748 
L 87.614086 288.750566 
L 88.122596 283.709274 
L 88.631105 281.259512 
L 89.139615 280.167233 
L 89.648125 279.660805 
L 90.326138 279.37045 
L 91.343157 279.233388 
L 94.055209 279.191115 
L 186.603982 279.190142 
L 392.21142 279.190142 
L 392.361995 279.702853 
L 393.011283 288.384904 
L 393.35029 290.375806 
L 393.689296 291.312869 
L 394.028303 291.739906 
L 394.536812 291.982662 
L 395.553832 292.07547 
L 402.503465 292.084117 
L 541.469545 292.084117 
L 541.469545 292.084117 
" clip-path="url(#pa06b080d29)" style="fill: none; stroke: #1f78b4; stroke-opacity: 0.7; stroke-width: 2; stroke-linecap: square"/>
   </g>
   <g id="line2d_16">
    <path d="M 66.860455 24.569091 
L 67.104193 28.418178 
L 67.4432 30.787193 
L 67.782206 31.706852 
L 68.121213 32.073074 
L 68.629722 32.259702 
L 69.816245 32.32575 
L 85.580047 32.329358 
L 87.105576 32.329358 
L 87.614086 125.96897 
L 87.953092 140.296305 
L 88.292099 145.804195 
L 88.800609 149.986469 
L 89.309118 152.207201 
L 89.817628 153.465476 
L 90.326138 154.201059 
L 91.004151 154.742598 
L 91.851667 155.064322 
L 93.03819 155.23653 
L 95.580739 155.310323 
L 114.395599 155.317395 
L 392.21142 155.317395 
L 392.486631 110.990453 
L 392.825638 68.642183 
L 393.164644 48.559486 
L 393.503651 39.457891 
L 393.842657 35.439553 
L 394.181664 33.684067 
L 394.52067 32.919594 
L 394.859677 32.586748 
L 395.368186 32.403608 
L 396.554709 32.333463 
L 410.453975 32.329358 
L 541.469545 32.329358 
L 541.469545 32.329358 
" clip-path="url(#pa06b080d29)" style="fill: none; stroke: #b2df8a; stroke-opacity: 0.7; stroke-width: 2; stroke-linecap: square"/>
   </g>
   <g id="line2d_17">
    <path d="M 66.860455 292.474031 
L 68.290716 292.112142 
L 70.833265 292.084184 
L 87.105576 292.084117 
L 87.275079 291.967173 
L 87.614086 288.187936 
L 88.122596 282.143701 
L 88.631105 279.037602 
L 89.139615 277.477224 
L 89.648125 276.629607 
L 90.156635 276.144973 
L 90.834648 275.792837 
L 91.851667 275.560883 
L 93.5467 275.450108 
L 99.30981 275.423205 
L 392.21142 275.423097 
L 392.355314 276.059687 
L 392.995141 287.247594 
L 393.334147 289.860427 
L 393.673154 291.083926 
L 394.01216 291.639011 
L 394.52067 291.953313 
L 395.368186 292.067338 
L 399.097258 292.084115 
L 541.469545 292.084117 
L 541.469545 292.084117 
" clip-path="url(#pa06b080d29)" style="fill: none; stroke: #33a02c; stroke-opacity: 0.7; stroke-width: 2; stroke-linecap: square"/>
   </g>
   <g id="line2d_18">
    <path d="M 66.860455 24.569091 
L 67.104193 28.418178 
L 67.4432 30.787193 
L 67.782206 31.706852 
L 68.121213 32.073074 
L 68.629722 32.259702 
L 69.816245 32.32575 
L 85.580047 32.329358 
L 87.105576 32.329358 
L 87.614086 129.989475 
L 87.953092 144.621418 
L 88.292099 150.504015 
L 88.800609 155.343113 
L 89.309118 158.196257 
L 89.817628 160.024918 
L 90.495641 161.58054 
L 91.173654 162.558799 
L 92.02117 163.323619 
L 92.868687 163.792619 
L 94.055209 164.173143 
L 95.750242 164.4337 
L 98.462294 164.576991 
L 105.07292 164.625397 
L 229.149297 164.627319 
L 392.21142 164.627319 
L 392.478101 121.155485 
L 392.817107 75.097695 
L 393.156114 51.845883 
L 393.49512 40.989202 
L 393.834127 36.128009 
L 394.173133 33.988969 
L 394.51214 33.05376 
L 394.851146 32.64562 
L 395.359656 32.420685 
L 396.376675 32.336998 
L 404.004321 32.329358 
L 541.469545 32.329358 
L 541.469545 32.329358 
" clip-path="url(#pa06b080d29)" style="fill: none; stroke: #fb9a99; stroke-opacity: 0.7; stroke-width: 2; stroke-linecap: square"/>
   </g>
   <g id="line2d_19">
    <path d="M 66.860455 292.474031 
L 68.290716 292.112142 
L 70.833265 292.084184 
L 87.105576 292.084117 
L 87.275079 291.96188 
L 87.614086 287.843836 
L 88.122596 281.164083 
L 88.631105 277.590506 
L 89.139615 275.635681 
L 89.648125 274.443783 
L 90.326138 273.460763 
L 91.004151 272.855245 
L 91.851667 272.388019 
L 93.03819 272.023073 
L 94.733222 271.780119 
L 97.614778 271.645139 
L 105.07292 271.60415 
L 329.495219 271.603095 
L 392.21142 271.603095 
L 392.351743 272.354866 
L 392.98661 286.062652 
L 393.325617 289.32072 
L 393.664623 290.843729 
L 394.00363 291.533097 
L 394.342636 291.840668 
L 394.851146 292.013013 
L 396.037669 292.080137 
L 410.445445 292.084117 
L 541.469545 292.084117 
L 541.469545 292.084117 
" clip-path="url(#pa06b080d29)" style="fill: none; stroke: #e31a1c; stroke-opacity: 0.7; stroke-width: 2; stroke-linecap: square"/>
   </g>
   <g id="line2d_20">
    <path d="M 66.860455 24.569091 
L 67.104193 28.418178 
L 67.4432 30.787193 
L 67.782206 31.706852 
L 68.121213 32.073074 
L 68.629722 32.259702 
L 69.816245 32.32575 
L 85.580047 32.329358 
L 87.105576 32.329358 
L 87.609915 146.269845 
L 87.948922 162.569325 
L 88.626935 178.404027 
L 89.304948 195.106143 
L 89.643954 208.974527 
L 89.982961 234.887196 
L 90.49147 286.223199 
L 90.830477 296.520464 
L 91.169483 299.042428 
L 91.50849 299.682504 
L 92.016999 299.899755 
L 93.203522 299.949437 
L 126.256655 299.950909 
L 392.207249 299.950909 
L 392.885262 293.567524 
L 393.224269 292.66927 
L 393.563275 292.320255 
L 394.071785 292.146835 
L 395.258308 292.087276 
L 413.056149 292.084117 
L 541.469545 292.084117 
L 541.469545 292.084117 
" clip-path="url(#pa06b080d29)" style="fill: none; stroke: #fdbf6f; stroke-opacity: 0.7; stroke-width: 2; stroke-linecap: square"/>
   </g>
   <g id="line2d_21">
    <path d="M 66.860455 292.474031 
L 68.290716 292.112142 
L 70.833265 292.084184 
L 87.105576 292.084117 
L 87.275079 291.93989 
L 87.609915 286.192144 
L 88.287928 273.334455 
L 89.304948 257.965099 
L 89.643954 248.113629 
L 89.813457 239.276462 
L 89.982961 223.883761 
L 90.321967 153.100704 
L 90.660974 80.959127 
L 90.99998 48.585186 
L 91.338987 36.109511 
L 91.677993 31.417451 
L 92.016999 29.665013 
L 92.356006 29.012275 
L 92.695012 28.769433 
L 93.373025 28.645566 
L 96.085077 28.625713 
L 392.376753 28.658271 
L 392.715759 29.569288 
L 393.224269 31.123804 
L 393.732779 31.903527 
L 394.241288 32.192414 
L 395.088805 32.310507 
L 398.47887 32.329353 
L 541.469545 32.329358 
L 541.469545 32.329358 
" clip-path="url(#pa06b080d29)" style="fill: none; stroke: #ff7f00; stroke-opacity: 0.7; stroke-width: 2; stroke-linecap: square"/>
   </g>
   <g id="patch_4">
    <path d="M 43.13 313.72 
L 43.13 10.8 
" style="fill: none; stroke: #000000; stroke-width: 0.8; stroke-linejoin: miter; stroke-linecap: square"/>
   </g>
   <g id="patch_5">
    <path d="M 565.2 313.72 
L 565.2 10.8 
" style="fill: none; stroke: #000000; stroke-width: 0.8; stroke-linejoin: miter; stroke-linecap: square"/>
   </g>
   <g id="patch_6">
    <path d="M 43.13 313.72 
L 565.2 313.72 
" style="fill: none; stroke: #000000; stroke-width: 0.8; stroke-linejoin: miter; stroke-linecap: square"/>
   </g>
   <g id="patch_7">
    <path d="M 43.13 10.8 
L 565.2 10.8 
" style="fill: none; stroke: #000000; stroke-width: 0.8; stroke-linejoin: miter; stroke-linecap: square"/>
   </g>
   <g id="text_16">
    <!-- Deterministic genetic switch model for multiple s values -->
    <g transform="translate(78.79 4.8) scale(0.16 -0.16)">
     <defs>
      <path id="DejaVuSans-44" d="M 1259 4147 
L 1259 519 
L 2022 519 
Q 2988 519 3436 956 
Q 3884 1394 3884 2338 
Q 3884 3275 3436 3711 
Q 2988 4147 2022 4147 
L 1259 4147 
z
M 628 4666 
L 1925 4666 
Q 3281 4666 3915 4102 
Q 4550 3538 4550 2338 
Q 4550 1131 3912 565 
Q 3275 0 1925 0 
L 628 0 
L 628 4666 
z
" transform="scale(0.015625)"/>
      <path id="DejaVuSans-67" d="M 2906 1791 
Q 2906 2416 2648 2759 
Q 2391 3103 1925 3103 
Q 1463 3103 1205 2759 
Q 947 2416 947 1791 
Q 947 1169 1205 825 
Q 1463 481 1925 481 
Q 2391 481 2648 825 
Q 2906 1169 2906 1791 
z
M 3481 434 
Q 3481 -459 3084 -895 
Q 2688 -1331 1869 -1331 
Q 1566 -1331 1297 -1286 
Q 1028 -1241 775 -1147 
L 775 -588 
Q 1028 -725 1275 -790 
Q 1522 -856 1778 -856 
Q 2344 -856 2625 -561 
Q 2906 -266 2906 331 
L 2906 616 
Q 2728 306 2450 153 
Q 2172 0 1784 0 
Q 1141 0 747 490 
Q 353 981 353 1791 
Q 353 2603 747 3093 
Q 1141 3584 1784 3584 
Q 2172 3584 2450 3431 
Q 2728 3278 2906 2969 
L 2906 3500 
L 3481 3500 
L 3481 434 
z
" transform="scale(0.015625)"/>
      <path id="DejaVuSans-77" d="M 269 3500 
L 844 3500 
L 1563 769 
L 2278 3500 
L 2956 3500 
L 3675 769 
L 4391 3500 
L 4966 3500 
L 4050 0 
L 3372 0 
L 2619 2869 
L 1863 0 
L 1184 0 
L 269 3500 
z
" transform="scale(0.015625)"/>
      <path id="DejaVuSans-68" d="M 3513 2113 
L 3513 0 
L 2938 0 
L 2938 2094 
Q 2938 2591 2744 2837 
Q 2550 3084 2163 3084 
Q 1697 3084 1428 2787 
Q 1159 2491 1159 1978 
L 1159 0 
L 581 0 
L 581 4863 
L 1159 4863 
L 1159 2956 
Q 1366 3272 1645 3428 
Q 1925 3584 2291 3584 
Q 2894 3584 3203 3211 
Q 3513 2838 3513 2113 
z
" transform="scale(0.015625)"/>
      <path id="DejaVuSans-64" d="M 2906 2969 
L 2906 4863 
L 3481 4863 
L 3481 0 
L 2906 0 
L 2906 525 
Q 2725 213 2448 61 
Q 2172 -91 1784 -91 
Q 1150 -91 751 415 
Q 353 922 353 1747 
Q 353 2572 751 3078 
Q 1150 3584 1784 3584 
Q 2172 3584 2448 3432 
Q 2725 3281 2906 2969 
z
M 947 1747 
Q 947 1113 1208 752 
Q 1469 391 1925 391 
Q 2381 391 2643 752 
Q 2906 1113 2906 1747 
Q 2906 2381 2643 2742 
Q 2381 3103 1925 3103 
Q 1469 3103 1208 2742 
Q 947 2381 947 1747 
z
" transform="scale(0.015625)"/>
      <path id="DejaVuSans-6c" d="M 603 4863 
L 1178 4863 
L 1178 0 
L 603 0 
L 603 4863 
z
" transform="scale(0.015625)"/>
      <path id="DejaVuSans-66" d="M 2375 4863 
L 2375 4384 
L 1825 4384 
Q 1516 4384 1395 4259 
Q 1275 4134 1275 3809 
L 1275 3500 
L 2222 3500 
L 2222 3053 
L 1275 3053 
L 1275 0 
L 697 0 
L 697 3053 
L 147 3053 
L 147 3500 
L 697 3500 
L 697 3744 
Q 697 4328 969 4595 
Q 1241 4863 1831 4863 
L 2375 4863 
z
" transform="scale(0.015625)"/>
      <path id="DejaVuSans-75" d="M 544 1381 
L 544 3500 
L 1119 3500 
L 1119 1403 
Q 1119 906 1312 657 
Q 1506 409 1894 409 
Q 2359 409 2629 706 
Q 2900 1003 2900 1516 
L 2900 3500 
L 3475 3500 
L 3475 0 
L 2900 0 
L 2900 538 
Q 2691 219 2414 64 
Q 2138 -91 1772 -91 
Q 1169 -91 856 284 
Q 544 659 544 1381 
z
M 1991 3584 
L 1991 3584 
z
" transform="scale(0.015625)"/>
      <path id="DejaVuSans-70" d="M 1159 525 
L 1159 -1331 
L 581 -1331 
L 581 3500 
L 1159 3500 
L 1159 2969 
Q 1341 3281 1617 3432 
Q 1894 3584 2278 3584 
Q 2916 3584 3314 3078 
Q 3713 2572 3713 1747 
Q 3713 922 3314 415 
Q 2916 -91 2278 -91 
Q 1894 -91 1617 61 
Q 1341 213 1159 525 
z
M 3116 1747 
Q 3116 2381 2855 2742 
Q 2594 3103 2138 3103 
Q 1681 3103 1420 2742 
Q 1159 2381 1159 1747 
Q 1159 1113 1420 752 
Q 1681 391 2138 391 
Q 2594 391 2855 752 
Q 3116 1113 3116 1747 
z
" transform="scale(0.015625)"/>
      <path id="DejaVuSans-76" d="M 191 3500 
L 800 3500 
L 1894 563 
L 2988 3500 
L 3597 3500 
L 2284 0 
L 1503 0 
L 191 3500 
z
" transform="scale(0.015625)"/>
     </defs>
     <use xlink:href="#DejaVuSans-44"/>
     <use xlink:href="#DejaVuSans-65" x="77.001953"/>
     <use xlink:href="#DejaVuSans-74" x="138.525391"/>
     <use xlink:href="#DejaVuSans-65" x="177.734375"/>
     <use xlink:href="#DejaVuSans-72" x="239.257812"/>
     <use xlink:href="#DejaVuSans-6d" x="278.621094"/>
     <use xlink:href="#DejaVuSans-69" x="376.033203"/>
     <use xlink:href="#DejaVuSans-6e" x="403.816406"/>
     <use xlink:href="#DejaVuSans-69" x="467.195312"/>
     <use xlink:href="#DejaVuSans-73" x="494.978516"/>
     <use xlink:href="#DejaVuSans-74" x="547.078125"/>
     <use xlink:href="#DejaVuSans-69" x="586.287109"/>
     <use xlink:href="#DejaVuSans-63" x="614.070312"/>
     <use xlink:href="#DejaVuSans-20" x="669.050781"/>
     <use xlink:href="#DejaVuSans-67" x="700.837891"/>
     <use xlink:href="#DejaVuSans-65" x="764.314453"/>
     <use xlink:href="#DejaVuSans-6e" x="825.837891"/>
     <use xlink:href="#DejaVuSans-65" x="889.216797"/>
     <use xlink:href="#DejaVuSans-74" x="950.740234"/>
     <use xlink:href="#DejaVuSans-69" x="989.949219"/>
     <use xlink:href="#DejaVuSans-63" x="1017.732422"/>
     <use xlink:href="#DejaVuSans-20" x="1072.712891"/>
     <use xlink:href="#DejaVuSans-73" x="1104.5"/>
     <use xlink:href="#DejaVuSans-77" x="1156.599609"/>
     <use xlink:href="#DejaVuSans-69" x="1238.386719"/>
     <use xlink:href="#DejaVuSans-74" x="1266.169922"/>
     <use xlink:href="#DejaVuSans-63" x="1305.378906"/>
     <use xlink:href="#DejaVuSans-68" x="1360.359375"/>
     <use xlink:href="#DejaVuSans-20" x="1423.738281"/>
     <use xlink:href="#DejaVuSans-6d" x="1455.525391"/>
     <use xlink:href="#DejaVuSans-6f" x="1552.9375"/>
     <use xlink:href="#DejaVuSans-64" x="1614.119141"/>
     <use xlink:href="#DejaVuSans-65" x="1677.595703"/>
     <use xlink:href="#DejaVuSans-6c" x="1739.119141"/>
     <use xlink:href="#DejaVuSans-20" x="1766.902344"/>
     <use xlink:href="#DejaVuSans-66" x="1798.689453"/>
     <use xlink:href="#DejaVuSans-6f" x="1833.894531"/>
     <use xlink:href="#DejaVuSans-72" x="1895.076172"/>
     <use xlink:href="#DejaVuSans-20" x="1936.189453"/>
     <use xlink:href="#DejaVuSans-6d" x="1967.976562"/>
     <use xlink:href="#DejaVuSans-75" x="2065.388672"/>
     <use xlink:href="#DejaVuSans-6c" x="2128.767578"/>
     <use xlink:href="#DejaVuSans-74" x="2156.550781"/>
     <use xlink:href="#DejaVuSans-69" x="2195.759766"/>
     <use xlink:href="#DejaVuSans-70" x="2223.542969"/>
     <use xlink:href="#DejaVuSans-6c" x="2287.019531"/>
     <use xlink:href="#DejaVuSans-65" x="2314.802734"/>
     <use xlink:href="#DejaVuSans-20" x="2376.326172"/>
     <use xlink:href="#DejaVuSans-73" x="2408.113281"/>
     <use xlink:href="#DejaVuSans-20" x="2460.212891"/>
     <use xlink:href="#DejaVuSans-76" x="2492"/>
     <use xlink:href="#DejaVuSans-61" x="2551.179688"/>
     <use xlink:href="#DejaVuSans-6c" x="2612.458984"/>
     <use xlink:href="#DejaVuSans-75" x="2640.242188"/>
     <use xlink:href="#DejaVuSans-65" x="2703.621094"/>
     <use xlink:href="#DejaVuSans-73" x="2765.144531"/>
    </g>
   </g>
   <g id="legend_1">
    <g id="patch_8">
     <path d="M 380.413125 243.321875 
L 556.8 243.321875 
Q 559.2 243.321875 559.2 240.921875 
L 559.2 83.598125 
Q 559.2 81.198125 556.8 81.198125 
L 380.413125 81.198125 
Q 378.013125 81.198125 378.013125 83.598125 
L 378.013125 240.921875 
Q 378.013125 243.321875 380.413125 243.321875 
z
" style="fill: #ffffff; opacity: 0.8; stroke: #cccccc; stroke-linejoin: miter"/>
    </g>
    <g id="line2d_22">
     <path d="M 382.813125 90.91625 
L 394.813125 90.91625 
L 406.813125 90.91625 
" style="fill: none; stroke: #a6cee3; stroke-opacity: 0.7; stroke-width: 2; stroke-linecap: square"/>
    </g>
    <g id="text_17">
     <!-- s=1.3, LacR  -->
     <g transform="translate(416.413125 95.11625) scale(0.12 -0.12)">
      <defs>
       <path id="DejaVuSans-3d" d="M 678 2906 
L 4684 2906 
L 4684 2381 
L 678 2381 
L 678 2906 
z
M 678 1631 
L 4684 1631 
L 4684 1100 
L 678 1100 
L 678 1631 
z
" transform="scale(0.015625)"/>
       <path id="DejaVuSans-2e" d="M 684 794 
L 1344 794 
L 1344 0 
L 684 0 
L 684 794 
z
" transform="scale(0.015625)"/>
       <path id="DejaVuSans-2c" d="M 750 794 
L 1409 794 
L 1409 256 
L 897 -744 
L 494 -744 
L 750 256 
L 750 794 
z
" transform="scale(0.015625)"/>
       <path id="DejaVuSans-4c" d="M 628 4666 
L 1259 4666 
L 1259 531 
L 3531 531 
L 3531 0 
L 628 0 
L 628 4666 
z
" transform="scale(0.015625)"/>
       <path id="DejaVuSans-52" d="M 2841 2188 
Q 3044 2119 3236 1894 
Q 3428 1669 3622 1275 
L 4263 0 
L 3584 0 
L 2988 1197 
Q 2756 1666 2539 1819 
Q 2322 1972 1947 1972 
L 1259 1972 
L 1259 0 
L 628 0 
L 628 4666 
L 2053 4666 
Q 2853 4666 3247 4331 
Q 3641 3997 3641 3322 
Q 3641 2881 3436 2590 
Q 3231 2300 2841 2188 
z
M 1259 4147 
L 1259 2491 
L 2053 2491 
Q 2509 2491 2742 2702 
Q 2975 2913 2975 3322 
Q 2975 3731 2742 3939 
Q 2509 4147 2053 4147 
L 1259 4147 
z
" transform="scale(0.015625)"/>
      </defs>
      <use xlink:href="#DejaVuSans-73"/>
      <use xlink:href="#DejaVuSans-3d" x="52.099609"/>
      <use xlink:href="#DejaVuSans-31" x="135.888672"/>
      <use xlink:href="#DejaVuSans-2e" x="199.511719"/>
      <use xlink:href="#DejaVuSans-33" x="231.298828"/>
      <use xlink:href="#DejaVuSans-2c" x="294.921875"/>
      <use xlink:href="#DejaVuSans-20" x="326.708984"/>
      <use xlink:href="#DejaVuSans-4c" x="358.496094"/>
      <use xlink:href="#DejaVuSans-61" x="414.208984"/>
      <use xlink:href="#DejaVuSans-63" x="475.488281"/>
      <use xlink:href="#DejaVuSans-52" x="530.46875"/>
      <use xlink:href="#DejaVuSans-20" x="599.951172"/>
     </g>
    </g>
    <g id="line2d_23">
     <path d="M 382.813125 108.53 
L 394.813125 108.53 
L 406.813125 108.53 
" style="fill: none; stroke: #1f78b4; stroke-opacity: 0.7; stroke-width: 2; stroke-linecap: square"/>
    </g>
    <g id="text_18">
     <!-- s=1.3, λCI  -->
     <g transform="translate(416.413125 112.73) scale(0.12 -0.12)">
      <defs>
       <path id="DejaVuSans-3bb" d="M 1981 4316 
L 3597 0 
L 2988 0 
L 2006 2588 
L 800 0 
L 191 0 
L 1725 3356 
L 1494 3975 
Q 1347 4369 1013 4369 
L 713 4369 
L 713 4863 
L 1078 4856 
Q 1784 4847 1981 4316 
z
" transform="scale(0.015625)"/>
       <path id="DejaVuSans-43" d="M 4122 4306 
L 4122 3641 
Q 3803 3938 3442 4084 
Q 3081 4231 2675 4231 
Q 1875 4231 1450 3742 
Q 1025 3253 1025 2328 
Q 1025 1406 1450 917 
Q 1875 428 2675 428 
Q 3081 428 3442 575 
Q 3803 722 4122 1019 
L 4122 359 
Q 3791 134 3420 21 
Q 3050 -91 2638 -91 
Q 1578 -91 968 557 
Q 359 1206 359 2328 
Q 359 3453 968 4101 
Q 1578 4750 2638 4750 
Q 3056 4750 3426 4639 
Q 3797 4528 4122 4306 
z
" transform="scale(0.015625)"/>
       <path id="DejaVuSans-49" d="M 628 4666 
L 1259 4666 
L 1259 0 
L 628 0 
L 628 4666 
z
" transform="scale(0.015625)"/>
      </defs>
      <use xlink:href="#DejaVuSans-73"/>
      <use xlink:href="#DejaVuSans-3d" x="52.099609"/>
      <use xlink:href="#DejaVuSans-31" x="135.888672"/>
      <use xlink:href="#DejaVuSans-2e" x="199.511719"/>
      <use xlink:href="#DejaVuSans-33" x="231.298828"/>
      <use xlink:href="#DejaVuSans-2c" x="294.921875"/>
      <use xlink:href="#DejaVuSans-20" x="326.708984"/>
      <use xlink:href="#DejaVuSans-3bb" x="358.496094"/>
      <use xlink:href="#DejaVuSans-43" x="417.675781"/>
      <use xlink:href="#DejaVuSans-49" x="487.5"/>
      <use xlink:href="#DejaVuSans-20" x="516.992188"/>
     </g>
    </g>
    <g id="line2d_24">
     <path d="M 382.813125 126.14375 
L 394.813125 126.14375 
L 406.813125 126.14375 
" style="fill: none; stroke: #b2df8a; stroke-opacity: 0.7; stroke-width: 2; stroke-linecap: square"/>
    </g>
    <g id="text_19">
     <!-- s=1.7, LacR  -->
     <g transform="translate(416.413125 130.34375) scale(0.12 -0.12)">
      <defs>
       <path id="DejaVuSans-37" d="M 525 4666 
L 3525 4666 
L 3525 4397 
L 1831 0 
L 1172 0 
L 2766 4134 
L 525 4134 
L 525 4666 
z
" transform="scale(0.015625)"/>
      </defs>
      <use xlink:href="#DejaVuSans-73"/>
      <use xlink:href="#DejaVuSans-3d" x="52.099609"/>
      <use xlink:href="#DejaVuSans-31" x="135.888672"/>
      <use xlink:href="#DejaVuSans-2e" x="199.511719"/>
      <use xlink:href="#DejaVuSans-37" x="231.298828"/>
      <use xlink:href="#DejaVuSans-2c" x="294.921875"/>
      <use xlink:href="#DejaVuSans-20" x="326.708984"/>
      <use xlink:href="#DejaVuSans-4c" x="358.496094"/>
      <use xlink:href="#DejaVuSans-61" x="414.208984"/>
      <use xlink:href="#DejaVuSans-63" x="475.488281"/>
      <use xlink:href="#DejaVuSans-52" x="530.46875"/>
      <use xlink:href="#DejaVuSans-20" x="599.951172"/>
     </g>
    </g>
    <g id="line2d_25">
     <path d="M 382.813125 143.7575 
L 394.813125 143.7575 
L 406.813125 143.7575 
" style="fill: none; stroke: #33a02c; stroke-opacity: 0.7; stroke-width: 2; stroke-linecap: square"/>
    </g>
    <g id="text_20">
     <!-- s=1.7, λCI  -->
     <g transform="translate(416.413125 147.9575) scale(0.12 -0.12)">
      <use xlink:href="#DejaVuSans-73"/>
      <use xlink:href="#DejaVuSans-3d" x="52.099609"/>
      <use xlink:href="#DejaVuSans-31" x="135.888672"/>
      <use xlink:href="#DejaVuSans-2e" x="199.511719"/>
      <use xlink:href="#DejaVuSans-37" x="231.298828"/>
      <use xlink:href="#DejaVuSans-2c" x="294.921875"/>
      <use xlink:href="#DejaVuSans-20" x="326.708984"/>
      <use xlink:href="#DejaVuSans-3bb" x="358.496094"/>
      <use xlink:href="#DejaVuSans-43" x="417.675781"/>
      <use xlink:href="#DejaVuSans-49" x="487.5"/>
      <use xlink:href="#DejaVuSans-20" x="516.992188"/>
     </g>
    </g>
    <g id="line2d_26">
     <path d="M 382.813125 161.37125 
L 394.813125 161.37125 
L 406.813125 161.37125 
" style="fill: none; stroke: #fb9a99; stroke-opacity: 0.7; stroke-width: 2; stroke-linecap: square"/>
    </g>
    <g id="text_21">
     <!-- s=2.0, LacR  -->
     <g transform="translate(416.413125 165.57125) scale(0.12 -0.12)">
      <use xlink:href="#DejaVuSans-73"/>
      <use xlink:href="#DejaVuSans-3d" x="52.099609"/>
      <use xlink:href="#DejaVuSans-32" x="135.888672"/>
      <use xlink:href="#DejaVuSans-2e" x="199.511719"/>
      <use xlink:href="#DejaVuSans-30" x="231.298828"/>
      <use xlink:href="#DejaVuSans-2c" x="294.921875"/>
      <use xlink:href="#DejaVuSans-20" x="326.708984"/>
      <use xlink:href="#DejaVuSans-4c" x="358.496094"/>
      <use xlink:href="#DejaVuSans-61" x="414.208984"/>
      <use xlink:href="#DejaVuSans-63" x="475.488281"/>
      <use xlink:href="#DejaVuSans-52" x="530.46875"/>
      <use xlink:href="#DejaVuSans-20" x="599.951172"/>
     </g>
    </g>
    <g id="line2d_27">
     <path d="M 382.813125 178.985 
L 394.813125 178.985 
L 406.813125 178.985 
" style="fill: none; stroke: #e31a1c; stroke-opacity: 0.7; stroke-width: 2; stroke-linecap: square"/>
    </g>
    <g id="text_22">
     <!-- s=2.0, λCI  -->
     <g transform="translate(416.413125 183.185) scale(0.12 -0.12)">
      <use xlink:href="#DejaVuSans-73"/>
      <use xlink:href="#DejaVuSans-3d" x="52.099609"/>
      <use xlink:href="#DejaVuSans-32" x="135.888672"/>
      <use xlink:href="#DejaVuSans-2e" x="199.511719"/>
      <use xlink:href="#DejaVuSans-30" x="231.298828"/>
      <use xlink:href="#DejaVuSans-2c" x="294.921875"/>
      <use xlink:href="#DejaVuSans-20" x="326.708984"/>
      <use xlink:href="#DejaVuSans-3bb" x="358.496094"/>
      <use xlink:href="#DejaVuSans-43" x="417.675781"/>
      <use xlink:href="#DejaVuSans-49" x="487.5"/>
      <use xlink:href="#DejaVuSans-20" x="516.992188"/>
     </g>
    </g>
    <g id="line2d_28">
     <path d="M 382.813125 196.59875 
L 394.813125 196.59875 
L 406.813125 196.59875 
" style="fill: none; stroke: #fdbf6f; stroke-opacity: 0.7; stroke-width: 2; stroke-linecap: square"/>
    </g>
    <g id="text_23">
     <!-- s=5, LacR  -->
     <g transform="translate(416.413125 200.79875) scale(0.12 -0.12)">
      <defs>
       <path id="DejaVuSans-35" d="M 691 4666 
L 3169 4666 
L 3169 4134 
L 1269 4134 
L 1269 2991 
Q 1406 3038 1543 3061 
Q 1681 3084 1819 3084 
Q 2600 3084 3056 2656 
Q 3513 2228 3513 1497 
Q 3513 744 3044 326 
Q 2575 -91 1722 -91 
Q 1428 -91 1123 -41 
Q 819 9 494 109 
L 494 744 
Q 775 591 1075 516 
Q 1375 441 1709 441 
Q 2250 441 2565 725 
Q 2881 1009 2881 1497 
Q 2881 1984 2565 2268 
Q 2250 2553 1709 2553 
Q 1456 2553 1204 2497 
Q 953 2441 691 2322 
L 691 4666 
z
" transform="scale(0.015625)"/>
      </defs>
      <use xlink:href="#DejaVuSans-73"/>
      <use xlink:href="#DejaVuSans-3d" x="52.099609"/>
      <use xlink:href="#DejaVuSans-35" x="135.888672"/>
      <use xlink:href="#DejaVuSans-2c" x="199.511719"/>
      <use xlink:href="#DejaVuSans-20" x="231.298828"/>
      <use xlink:href="#DejaVuSans-4c" x="263.085938"/>
      <use xlink:href="#DejaVuSans-61" x="318.798828"/>
      <use xlink:href="#DejaVuSans-63" x="380.078125"/>
      <use xlink:href="#DejaVuSans-52" x="435.058594"/>
      <use xlink:href="#DejaVuSans-20" x="504.541016"/>
     </g>
    </g>
    <g id="line2d_29">
     <path d="M 382.813125 214.2125 
L 394.813125 214.2125 
L 406.813125 214.2125 
" style="fill: none; stroke: #ff7f00; stroke-opacity: 0.7; stroke-width: 2; stroke-linecap: square"/>
    </g>
    <g id="text_24">
     <!-- s=5, λCI  -->
     <g transform="translate(416.413125 218.4125) scale(0.12 -0.12)">
      <use xlink:href="#DejaVuSans-73"/>
      <use xlink:href="#DejaVuSans-3d" x="52.099609"/>
      <use xlink:href="#DejaVuSans-35" x="135.888672"/>
      <use xlink:href="#DejaVuSans-2c" x="199.511719"/>
      <use xlink:href="#DejaVuSans-20" x="231.298828"/>
      <use xlink:href="#DejaVuSans-3bb" x="263.085938"/>
      <use xlink:href="#DejaVuSans-43" x="322.265625"/>
      <use xlink:href="#DejaVuSans-49" x="392.089844"/>
      <use xlink:href="#DejaVuSans-20" x="421.582031"/>
     </g>
    </g>
    <g id="patch_9">
     <path d="M 382.813125 236.02625 
L 406.813125 236.02625 
L 406.813125 227.62625 
L 382.813125 227.62625 
z
" style="fill: #808080; opacity: 0.15; stroke: #808080; stroke-linejoin: miter"/>
    </g>
    <g id="text_25">
     <!-- MMC induction window -->
     <g transform="translate(416.413125 236.02625) scale(0.12 -0.12)">
      <use xlink:href="#DejaVuSans-4d"/>
      <use xlink:href="#DejaVuSans-4d" x="86.279297"/>
      <use xlink:href="#DejaVuSans-43" x="172.558594"/>
      <use xlink:href="#DejaVuSans-20" x="242.382812"/>
      <use xlink:href="#DejaVuSans-69" x="274.169922"/>
      <use xlink:href="#DejaVuSans-6e" x="301.953125"/>
      <use xlink:href="#DejaVuSans-64" x="365.332031"/>
      <use xlink:href="#DejaVuSans-75" x="428.808594"/>
      <use xlink:href="#DejaVuSans-63" x="492.1875"/>
      <use xlink:href="#DejaVuSans-74" x="547.167969"/>
      <use xlink:href="#DejaVuSans-69" x="586.376953"/>
      <use xlink:href="#DejaVuSans-6f" x="614.160156"/>
      <use xlink:href="#DejaVuSans-6e" x="675.341797"/>
      <use xlink:href="#DejaVuSans-20" x="738.720703"/>
      <use xlink:href="#DejaVuSans-77" x="770.507812"/>
      <use xlink:href="#DejaVuSans-69" x="852.294922"/>
      <use xlink:href="#DejaVuSans-6e" x="880.078125"/>
      <use xlink:href="#DejaVuSans-64" x="943.457031"/>
      <use xlink:href="#DejaVuSans-6f" x="1006.933594"/>
      <use xlink:href="#DejaVuSans-77" x="1068.115234"/>
     </g>
    </g>
   </g>
  </g>
 </g>
 <defs>
  <clipPath id="pa06b080d29">
   <rect x="43.13" y="10.8" width="522.07" height="302.92"/>
  </clipPath>
 </defs>
</svg>
