<?xml version="1.0" encoding="utf-8" standalone="no"?>
<!DOCTYPE svg PUBLIC "-//W3C//DTD SVG 1.1//EN"
  "http://www.w3.org/Graphics/SVG/1.1/DTD/svg11.dtd">
<svg xmlns:xlink="http://www.w3.org/1999/xlink" width="720pt" height="432pt" viewBox="0 0 720 432" xmlns="http://www.w3.org/2000/svg" version="1.1">
 <metadata>
  <rdf:RDF xmlns:dc="http://purl.org/dc/elements/1.1/" xmlns:cc="http://creativecommons.org/ns#" xmlns:rdf="http://www.w3.org/1999/02/22-rdf-syntax-ns#">
   <cc:Work>
    <dc:type rdf:resource="http://purl.org/dc/dcmitype/StillImage"/>
    <dc:date>2025-08-21T16:56:15.654305</dc:date>
    <dc:format>image/svg+xml</dc:format>
    <dc:creator>
     <cc:Agent>
      <dc:title>Matplotlib v3.9.2, https://matplotlib.org/</dc:title>
     </cc:Agent>
    </dc:creator>
   </cc:Work>
  </rdf:RDF>
 </metadata>
 <defs>
  <style type="text/css">*{stroke-linejoin: round; stroke-linecap: butt}</style>
 </defs>
 <g id="figure_1">
  <g id="patch_1">
   <path d="M 0 432 
L 720 432 
L 720 0 
L 0 0 
z
" style="fill: #ffffff"/>
  </g>
  <g id="axes_1">
   <g id="patch_2">
    <path d="M 58.43 385.72 
L 709.2 385.72 
L 709.2 29.76 
L 58.43 29.76 
z
" style="fill: #ffffff"/>
   </g>
   <g id="PathCollection_1">
    <defs>
     <path id="C0_0_c3415fe028" d="M 0 3 
C 0.795609 3 1.55874 2.683901 2.12132 2.12132 
C 2.683901 1.55874 3 0.795609 3 -0 
C 3 -0.795609 2.683901 -1.55874 2.12132 -2.12132 
C 1.55874 -2.683901 0.795609 -3 0 -3 
C -0.795609 -3 -1.55874 -2.683901 -2.12132 -2.12132 
C -2.683901 -1.55874 -3 -0.795609 -3 0 
C -3 0.795609 -2.683901 1.55874 -2.12132 2.12132 
C -1.55874 2.683901 -0.795609 3 0 3 
z
"/>
    </defs>
    <g clip-path="url(#p24e9b7699a)">
     <use xlink:href="#C0_0_c3415fe028" x="88.010455" y="368.285254" style="fill: none; stroke: #ff0000"/>
    </g>
    <g clip-path="url(#p24e9b7699a)">
     <use xlink:href="#C0_0_c3415fe028" x="130.268247" y="364.70364" style="fill: none; stroke: #ff0000"/>
    </g>
    <g clip-path="url(#p24e9b7699a)">
     <use xlink:href="#C0_0_c3415fe028" x="172.526039" y="360.470824" style="fill: none; stroke: #ff0000"/>
    </g>
    <g clip-path="url(#p24e9b7699a)">
     <use xlink:href="#C0_0_c3415fe028" x="214.783831" y="354.2844" style="fill: none; stroke: #ff0000"/>
    </g>
    <g clip-path="url(#p24e9b7699a)">
     <use xlink:href="#C0_0_c3415fe028" x="257.041623" y="332.794716" style="fill: none; stroke: #ff0000"/>
    </g>
    <g clip-path="url(#p24e9b7699a)">
     <use xlink:href="#C0_0_c3415fe028" x="299.299416" y="315.86345" style="fill: none; stroke: #ff0000"/>
    </g>
    <g clip-path="url(#p24e9b7699a)">
     <use xlink:href="#C0_0_c3415fe028" x="341.557208" y="293.396963" style="fill: none; stroke: #ff0000"/>
    </g>
    <g clip-path="url(#p24e9b7699a)">
     <use xlink:href="#C0_0_c3415fe028" x="383.815" y="256.60402" style="fill: none; stroke: #ff0000"/>
    </g>
    <g clip-path="url(#p24e9b7699a)">
     <use xlink:href="#C0_0_c3415fe028" x="426.072792" y="217.531868" style="fill: none; stroke: #ff0000"/>
    </g>
    <g clip-path="url(#p24e9b7699a)">
     <use xlink:href="#C0_0_c3415fe028" x="468.330584" y="164.784462" style="fill: none; stroke: #ff0000"/>
    </g>
    <g clip-path="url(#p24e9b7699a)">
     <use xlink:href="#C0_0_c3415fe028" x="510.588377" y="116.269874" style="fill: none; stroke: #ff0000"/>
    </g>
    <g clip-path="url(#p24e9b7699a)">
     <use xlink:href="#C0_0_c3415fe028" x="552.846169" y="86.96576" style="fill: none; stroke: #ff0000"/>
    </g>
    <g clip-path="url(#p24e9b7699a)">
     <use xlink:href="#C0_0_c3415fe028" x="595.103961" y="62.545665" style="fill: none; stroke: #ff0000"/>
    </g>
    <g clip-path="url(#p24e9b7699a)">
     <use xlink:href="#C0_0_c3415fe028" x="637.361753" y="49.521614" style="fill: none; stroke: #ff0000"/>
    </g>
    <g clip-path="url(#p24e9b7699a)">
     <use xlink:href="#C0_0_c3415fe028" x="679.619545" y="45.94" style="fill: none; stroke: #ff0000"/>
    </g>
   </g>
   <g id="matplotlib.axis_1">
    <g id="xtick_1">
     <g id="line2d_1">
      <path d="M 88.010455 385.72 
L 88.010455 29.76 
" clip-path="url(#p24e9b7699a)" style="fill: none; stroke: #b0b0b0; stroke-width: 0.8; stroke-linecap: square"/>
     </g>
     <g id="line2d_2">
      <defs>
       <path id="ma63917758b" d="M 0 0 
L 0 3.5 
" style="stroke: #000000; stroke-width: 0.8"/>
      </defs>
      <g>
       <use xlink:href="#ma63917758b" x="88.010455" y="385.72" style="stroke: #000000; stroke-width: 0.8"/>
      </g>
     </g>
     <g id="text_1">
      <!-- 1.50 -->
      <g transform="translate(74.65108 401.838125) scale(0.12 -0.12)">
       <defs>
        <path id="DejaVuSans-31" d="M 794 531 
L 1825 531 
L 1825 4091 
L 703 3866 
L 703 4441 
L 1819 4666 
L 2450 4666 
L 2450 531 
L 3481 531 
L 3481 0 
L 794 0 
L 794 531 
z
" transform="scale(0.015625)"/>
        <path id="DejaVuSans-2e" d="M 684 794 
L 1344 794 
L 1344 0 
L 684 0 
L 684 794 
z
" transform="scale(0.015625)"/>
        <path id="DejaVuSans-35" d="M 691 4666 
L 3169 4666 
L 3169 4134 
L 1269 4134 
L 1269 2991 
Q 1406 3038 1543 3061 
Q 1681 3084 1819 3084 
Q 2600 3084 3056 2656 
Q 3513 2228 3513 1497 
Q 3513 744 3044 326 
Q 2575 -91 1722 -91 
Q 1428 -91 1123 -41 
Q 819 9 494 109 
L 494 744 
Q 775 591 1075 516 
Q 1375 441 1709 441 
Q 2250 441 2565 725 
Q 2881 1009 2881 1497 
Q 2881 1984 2565 2268 
Q 2250 2553 1709 2553 
Q 1456 2553 1204 2497 
Q 953 2441 691 2322 
L 691 4666 
z
" transform="scale(0.015625)"/>
        <path id="DejaVuSans-30" d="M 2034 4250 
Q 1547 4250 1301 3770 
Q 1056 3291 1056 2328 
Q 1056 1369 1301 889 
Q 1547 409 2034 409 
Q 2525 409 2770 889 
Q 3016 1369 3016 2328 
Q 3016 3291 2770 3770 
Q 2525 4250 2034 4250 
z
M 2034 4750 
Q 2819 4750 3233 4129 
Q 3647 3509 3647 2328 
Q 3647 1150 3233 529 
Q 2819 -91 2034 -91 
Q 1250 -91 836 529 
Q 422 1150 422 2328 
Q 422 3509 836 4129 
Q 1250 4750 2034 4750 
z
" transform="scale(0.015625)"/>
       </defs>
       <use xlink:href="#DejaVuSans-31"/>
       <use xlink:href="#DejaVuSans-2e" x="63.623047"/>
       <use xlink:href="#DejaVuSans-35" x="95.410156"/>
       <use xlink:href="#DejaVuSans-30" x="159.033203"/>
      </g>
     </g>
    </g>
    <g id="xtick_2">
     <g id="line2d_3">
      <path d="M 172.526039 385.72 
L 172.526039 29.76 
" clip-path="url(#p24e9b7699a)" style="fill: none; stroke: #b0b0b0; stroke-width: 0.8; stroke-linecap: square"/>
     </g>
     <g id="line2d_4">
      <g>
       <use xlink:href="#ma63917758b" x="172.526039" y="385.72" style="stroke: #000000; stroke-width: 0.8"/>
      </g>
     </g>
     <g id="text_2">
      <!-- 1.55 -->
      <g transform="translate(159.166664 401.838125) scale(0.12 -0.12)">
       <use xlink:href="#DejaVuSans-31"/>
       <use xlink:href="#DejaVuSans-2e" x="63.623047"/>
       <use xlink:href="#DejaVuSans-35" x="95.410156"/>
       <use xlink:href="#DejaVuSans-35" x="159.033203"/>
      </g>
     </g>
    </g>
    <g id="xtick_3">
     <g id="line2d_5">
      <path d="M 257.041623 385.72 
L 257.041623 29.76 
" clip-path="url(#p24e9b7699a)" style="fill: none; stroke: #b0b0b0; stroke-width: 0.8; stroke-linecap: square"/>
     </g>
     <g id="line2d_6">
      <g>
       <use xlink:href="#ma63917758b" x="257.041623" y="385.72" style="stroke: #000000; stroke-width: 0.8"/>
      </g>
     </g>
     <g id="text_3">
      <!-- 1.60 -->
      <g transform="translate(243.682248 401.838125) scale(0.12 -0.12)">
       <defs>
        <path id="DejaVuSans-36" d="M 2113 2584 
Q 1688 2584 1439 2293 
Q 1191 2003 1191 1497 
Q 1191 994 1439 701 
Q 1688 409 2113 409 
Q 2538 409 2786 701 
Q 3034 994 3034 1497 
Q 3034 2003 2786 2293 
Q 2538 2584 2113 2584 
z
M 3366 4563 
L 3366 3988 
Q 3128 4100 2886 4159 
Q 2644 4219 2406 4219 
Q 1781 4219 1451 3797 
Q 1122 3375 1075 2522 
Q 1259 2794 1537 2939 
Q 1816 3084 2150 3084 
Q 2853 3084 3261 2657 
Q 3669 2231 3669 1497 
Q 3669 778 3244 343 
Q 2819 -91 2113 -91 
Q 1303 -91 875 529 
Q 447 1150 447 2328 
Q 447 3434 972 4092 
Q 1497 4750 2381 4750 
Q 2619 4750 2861 4703 
Q 3103 4656 3366 4563 
z
" transform="scale(0.015625)"/>
       </defs>
       <use xlink:href="#DejaVuSans-31"/>
       <use xlink:href="#DejaVuSans-2e" x="63.623047"/>
       <use xlink:href="#DejaVuSans-36" x="95.410156"/>
       <use xlink:href="#DejaVuSans-30" x="159.033203"/>
      </g>
     </g>
    </g>
    <g id="xtick_4">
     <g id="line2d_7">
      <path d="M 341.557208 385.72 
L 341.557208 29.76 
" clip-path="url(#p24e9b7699a)" style="fill: none; stroke: #b0b0b0; stroke-width: 0.8; stroke-linecap: square"/>
     </g>
     <g id="line2d_8">
      <g>
       <use xlink:href="#ma63917758b" x="341.557208" y="385.72" style="stroke: #000000; stroke-width: 0.8"/>
      </g>
     </g>
     <g id="text_4">
      <!-- 1.65 -->
      <g transform="translate(328.197833 401.838125) scale(0.12 -0.12)">
       <use xlink:href="#DejaVuSans-31"/>
       <use xlink:href="#DejaVuSans-2e" x="63.623047"/>
       <use xlink:href="#DejaVuSans-36" x="95.410156"/>
       <use xlink:href="#DejaVuSans-35" x="159.033203"/>
      </g>
     </g>
    </g>
    <g id="xtick_5">
     <g id="line2d_9">
      <path d="M 426.072792 385.72 
L 426.072792 29.76 
" clip-path="url(#p24e9b7699a)" style="fill: none; stroke: #b0b0b0; stroke-width: 0.8; stroke-linecap: square"/>
     </g>
     <g id="line2d_10">
      <g>
       <use xlink:href="#ma63917758b" x="426.072792" y="385.72" style="stroke: #000000; stroke-width: 0.8"/>
      </g>
     </g>
     <g id="text_5">
      <!-- 1.70 -->
      <g transform="translate(412.713417 401.838125) scale(0.12 -0.12)">
       <defs>
        <path id="DejaVuSans-37" d="M 525 4666 
L 3525 4666 
L 3525 4397 
L 1831 0 
L 1172 0 
L 2766 4134 
L 525 4134 
L 525 4666 
z
" transform="scale(0.015625)"/>
       </defs>
       <use xlink:href="#DejaVuSans-31"/>
       <use xlink:href="#DejaVuSans-2e" x="63.623047"/>
       <use xlink:href="#DejaVuSans-37" x="95.410156"/>
       <use xlink:href="#DejaVuSans-30" x="159.033203"/>
      </g>
     </g>
    </g>
    <g id="xtick_6">
     <g id="line2d_11">
      <path d="M 510.588377 385.72 
L 510.588377 29.76 
" clip-path="url(#p24e9b7699a)" style="fill: none; stroke: #b0b0b0; stroke-width: 0.8; stroke-linecap: square"/>
     </g>
     <g id="line2d_12">
      <g>
       <use xlink:href="#ma63917758b" x="510.588377" y="385.72" style="stroke: #000000; stroke-width: 0.8"/>
      </g>
     </g>
     <g id="text_6">
      <!-- 1.75 -->
      <g transform="translate(497.229002 401.838125) scale(0.12 -0.12)">
       <use xlink:href="#DejaVuSans-31"/>
       <use xlink:href="#DejaVuSans-2e" x="63.623047"/>
       <use xlink:href="#DejaVuSans-37" x="95.410156"/>
       <use xlink:href="#DejaVuSans-35" x="159.033203"/>
      </g>
     </g>
    </g>
    <g id="xtick_7">
     <g id="line2d_13">
      <path d="M 595.103961 385.72 
L 595.103961 29.76 
" clip-path="url(#p24e9b7699a)" style="fill: none; stroke: #b0b0b0; stroke-width: 0.8; stroke-linecap: square"/>
     </g>
     <g id="line2d_14">
      <g>
       <use xlink:href="#ma63917758b" x="595.103961" y="385.72" style="stroke: #000000; stroke-width: 0.8"/>
      </g>
     </g>
     <g id="text_7">
      <!-- 1.80 -->
      <g transform="translate(581.744586 401.838125) scale(0.12 -0.12)">
       <defs>
        <path id="DejaVuSans-38" d="M 2034 2216 
Q 1584 2216 1326 1975 
Q 1069 1734 1069 1313 
Q 1069 891 1326 650 
Q 1584 409 2034 409 
Q 2484 409 2743 651 
Q 3003 894 3003 1313 
Q 3003 1734 2745 1975 
Q 2488 2216 2034 2216 
z
M 1403 2484 
Q 997 2584 770 2862 
Q 544 3141 544 3541 
Q 544 4100 942 4425 
Q 1341 4750 2034 4750 
Q 2731 4750 3128 4425 
Q 3525 4100 3525 3541 
Q 3525 3141 3298 2862 
Q 3072 2584 2669 2484 
Q 3125 2378 3379 2068 
Q 3634 1759 3634 1313 
Q 3634 634 3220 271 
Q 2806 -91 2034 -91 
Q 1263 -91 848 271 
Q 434 634 434 1313 
Q 434 1759 690 2068 
Q 947 2378 1403 2484 
z
M 1172 3481 
Q 1172 3119 1398 2916 
Q 1625 2713 2034 2713 
Q 2441 2713 2670 2916 
Q 2900 3119 2900 3481 
Q 2900 3844 2670 4047 
Q 2441 4250 2034 4250 
Q 1625 4250 1398 4047 
Q 1172 3844 1172 3481 
z
" transform="scale(0.015625)"/>
       </defs>
       <use xlink:href="#DejaVuSans-31"/>
       <use xlink:href="#DejaVuSans-2e" x="63.623047"/>
       <use xlink:href="#DejaVuSans-38" x="95.410156"/>
       <use xlink:href="#DejaVuSans-30" x="159.033203"/>
      </g>
     </g>
    </g>
    <g id="xtick_8">
     <g id="line2d_15">
      <path d="M 679.619545 385.72 
L 679.619545 29.76 
" clip-path="url(#p24e9b7699a)" style="fill: none; stroke: #b0b0b0; stroke-width: 0.8; stroke-linecap: square"/>
     </g>
     <g id="line2d_16">
      <g>
       <use xlink:href="#ma63917758b" x="679.619545" y="385.72" style="stroke: #000000; stroke-width: 0.8"/>
      </g>
     </g>
     <g id="text_8">
      <!-- 1.85 -->
      <g transform="translate(666.26017 401.838125) scale(0.12 -0.12)">
       <use xlink:href="#DejaVuSans-31"/>
       <use xlink:href="#DejaVuSans-2e" x="63.623047"/>
       <use xlink:href="#DejaVuSans-38" x="95.410156"/>
       <use xlink:href="#DejaVuSans-35" x="159.033203"/>
      </g>
     </g>
    </g>
    <g id="text_9">
     <!-- s value -->
     <g transform="translate(358.822812 418.971563) scale(0.14 -0.14)">
      <defs>
       <path id="DejaVuSans-73" d="M 2834 3397 
L 2834 2853 
Q 2591 2978 2328 3040 
Q 2066 3103 1784 3103 
Q 1356 3103 1142 2972 
Q 928 2841 928 2578 
Q 928 2378 1081 2264 
Q 1234 2150 1697 2047 
L 1894 2003 
Q 2506 1872 2764 1633 
Q 3022 1394 3022 966 
Q 3022 478 2636 193 
Q 2250 -91 1575 -91 
Q 1294 -91 989 -36 
Q 684 19 347 128 
L 347 722 
Q 666 556 975 473 
Q 1284 391 1588 391 
Q 1994 391 2212 530 
Q 2431 669 2431 922 
Q 2431 1156 2273 1281 
Q 2116 1406 1581 1522 
L 1381 1569 
Q 847 1681 609 1914 
Q 372 2147 372 2553 
Q 372 3047 722 3315 
Q 1072 3584 1716 3584 
Q 2034 3584 2315 3537 
Q 2597 3491 2834 3397 
z
" transform="scale(0.015625)"/>
       <path id="DejaVuSans-20" transform="scale(0.015625)"/>
       <path id="DejaVuSans-76" d="M 191 3500 
L 800 3500 
L 1894 563 
L 2988 3500 
L 3597 3500 
L 2284 0 
L 1503 0 
L 191 3500 
z
" transform="scale(0.015625)"/>
       <path id="DejaVuSans-61" d="M 2194 1759 
Q 1497 1759 1228 1600 
Q 959 1441 959 1056 
Q 959 750 1161 570 
Q 1363 391 1709 391 
Q 2188 391 2477 730 
Q 2766 1069 2766 1631 
L 2766 1759 
L 2194 1759 
z
M 3341 1997 
L 3341 0 
L 2766 0 
L 2766 531 
Q 2569 213 2275 61 
Q 1981 -91 1556 -91 
Q 1019 -91 701 211 
Q 384 513 384 1019 
Q 384 1609 779 1909 
Q 1175 2209 1959 2209 
L 2766 2209 
L 2766 2266 
Q 2766 2663 2505 2880 
Q 2244 3097 1772 3097 
Q 1472 3097 1187 3025 
Q 903 2953 641 2809 
L 641 3341 
Q 956 3463 1253 3523 
Q 1550 3584 1831 3584 
Q 2591 3584 2966 3190 
Q 3341 2797 3341 1997 
z
" transform="scale(0.015625)"/>
       <path id="DejaVuSans-6c" d="M 603 4863 
L 1178 4863 
L 1178 0 
L 603 0 
L 603 4863 
z
" transform="scale(0.015625)"/>
       <path id="DejaVuSans-75" d="M 544 1381 
L 544 3500 
L 1119 3500 
L 1119 1403 
Q 1119 906 1312 657 
Q 1506 409 1894 409 
Q 2359 409 2629 706 
Q 2900 1003 2900 1516 
L 2900 3500 
L 3475 3500 
L 3475 0 
L 2900 0 
L 2900 538 
Q 2691 219 2414 64 
Q 2138 -91 1772 -91 
Q 1169 -91 856 284 
Q 544 659 544 1381 
z
M 1991 3584 
L 1991 3584 
z
" transform="scale(0.015625)"/>
       <path id="DejaVuSans-65" d="M 3597 1894 
L 3597 1613 
L 953 1613 
Q 991 1019 1311 708 
Q 1631 397 2203 397 
Q 2534 397 2845 478 
Q 3156 559 3463 722 
L 3463 178 
Q 3153 47 2828 -22 
Q 2503 -91 2169 -91 
Q 1331 -91 842 396 
Q 353 884 353 1716 
Q 353 2575 817 3079 
Q 1281 3584 2069 3584 
Q 2775 3584 3186 3129 
Q 3597 2675 3597 1894 
z
M 3022 2063 
Q 3016 2534 2758 2815 
Q 2500 3097 2075 3097 
Q 1594 3097 1305 2825 
Q 1016 2553 972 2059 
L 3022 2063 
z
" transform="scale(0.015625)"/>
      </defs>
      <use xlink:href="#DejaVuSans-73"/>
      <use xlink:href="#DejaVuSans-20" x="52.099609"/>
      <use xlink:href="#DejaVuSans-76" x="83.886719"/>
      <use xlink:href="#DejaVuSans-61" x="143.066406"/>
      <use xlink:href="#DejaVuSans-6c" x="204.345703"/>
      <use xlink:href="#DejaVuSans-75" x="232.128906"/>
      <use xlink:href="#DejaVuSans-65" x="295.507812"/>
     </g>
    </g>
   </g>
   <g id="matplotlib.axis_2">
    <g id="ytick_1">
     <g id="line2d_17">
      <path d="M 58.43 369.587659 
L 709.2 369.587659 
" clip-path="url(#p24e9b7699a)" style="fill: none; stroke: #b0b0b0; stroke-width: 0.8; stroke-linecap: square"/>
     </g>
     <g id="line2d_18">
      <defs>
       <path id="m5e7b3ed167" d="M 0 0 
L -3.5 0 
" style="stroke: #000000; stroke-width: 0.8"/>
      </defs>
      <g>
       <use xlink:href="#m5e7b3ed167" x="58.43" y="369.587659" style="stroke: #000000; stroke-width: 0.8"/>
      </g>
     </g>
     <g id="text_10">
      <!-- 0 -->
      <g transform="translate(43.795 374.146722) scale(0.12 -0.12)">
       <use xlink:href="#DejaVuSans-30"/>
      </g>
     </g>
    </g>
    <g id="ytick_2">
     <g id="line2d_19">
      <path d="M 58.43 304.467406 
L 709.2 304.467406 
" clip-path="url(#p24e9b7699a)" style="fill: none; stroke: #b0b0b0; stroke-width: 0.8; stroke-linecap: square"/>
     </g>
     <g id="line2d_20">
      <g>
       <use xlink:href="#m5e7b3ed167" x="58.43" y="304.467406" style="stroke: #000000; stroke-width: 0.8"/>
      </g>
     </g>
     <g id="text_11">
      <!-- 20 -->
      <g transform="translate(36.16 309.026468) scale(0.12 -0.12)">
       <defs>
        <path id="DejaVuSans-32" d="M 1228 531 
L 3431 531 
L 3431 0 
L 469 0 
L 469 531 
Q 828 903 1448 1529 
Q 2069 2156 2228 2338 
Q 2531 2678 2651 2914 
Q 2772 3150 2772 3378 
Q 2772 3750 2511 3984 
Q 2250 4219 1831 4219 
Q 1534 4219 1204 4116 
Q 875 4013 500 3803 
L 500 4441 
Q 881 4594 1212 4672 
Q 1544 4750 1819 4750 
Q 2544 4750 2975 4387 
Q 3406 4025 3406 3419 
Q 3406 3131 3298 2873 
Q 3191 2616 2906 2266 
Q 2828 2175 2409 1742 
Q 1991 1309 1228 531 
z
" transform="scale(0.015625)"/>
       </defs>
       <use xlink:href="#DejaVuSans-32"/>
       <use xlink:href="#DejaVuSans-30" x="63.623047"/>
      </g>
     </g>
    </g>
    <g id="ytick_3">
     <g id="line2d_21">
      <path d="M 58.43 239.347152 
L 709.2 239.347152 
" clip-path="url(#p24e9b7699a)" style="fill: none; stroke: #b0b0b0; stroke-width: 0.8; stroke-linecap: square"/>
     </g>
     <g id="line2d_22">
      <g>
       <use xlink:href="#m5e7b3ed167" x="58.43" y="239.347152" style="stroke: #000000; stroke-width: 0.8"/>
      </g>
     </g>
     <g id="text_12">
      <!-- 40 -->
      <g transform="translate(36.16 243.906215) scale(0.12 -0.12)">
       <defs>
        <path id="DejaVuSans-34" d="M 2419 4116 
L 825 1625 
L 2419 1625 
L 2419 4116 
z
M 2253 4666 
L 3047 4666 
L 3047 1625 
L 3713 1625 
L 3713 1100 
L 3047 1100 
L 3047 0 
L 2419 0 
L 2419 1100 
L 313 1100 
L 313 1709 
L 2253 4666 
z
" transform="scale(0.015625)"/>
       </defs>
       <use xlink:href="#DejaVuSans-34"/>
       <use xlink:href="#DejaVuSans-30" x="63.623047"/>
      </g>
     </g>
    </g>
    <g id="ytick_4">
     <g id="line2d_23">
      <path d="M 58.43 174.226899 
L 709.2 174.226899 
" clip-path="url(#p24e9b7699a)" style="fill: none; stroke: #b0b0b0; stroke-width: 0.8; stroke-linecap: square"/>
     </g>
     <g id="line2d_24">
      <g>
       <use xlink:href="#m5e7b3ed167" x="58.43" y="174.226899" style="stroke: #000000; stroke-width: 0.8"/>
      </g>
     </g>
     <g id="text_13">
      <!-- 60 -->
      <g transform="translate(36.16 178.785962) scale(0.12 -0.12)">
       <use xlink:href="#DejaVuSans-36"/>
       <use xlink:href="#DejaVuSans-30" x="63.623047"/>
      </g>
     </g>
    </g>
    <g id="ytick_5">
     <g id="line2d_25">
      <path d="M 58.43 109.106646 
L 709.2 109.106646 
" clip-path="url(#p24e9b7699a)" style="fill: none; stroke: #b0b0b0; stroke-width: 0.8; stroke-linecap: square"/>
     </g>
     <g id="line2d_26">
      <g>
       <use xlink:href="#m5e7b3ed167" x="58.43" y="109.106646" style="stroke: #000000; stroke-width: 0.8"/>
      </g>
     </g>
     <g id="text_14">
      <!-- 80 -->
      <g transform="translate(36.16 113.665708) scale(0.12 -0.12)">
       <use xlink:href="#DejaVuSans-38"/>
       <use xlink:href="#DejaVuSans-30" x="63.623047"/>
      </g>
     </g>
    </g>
    <g id="ytick_6">
     <g id="line2d_27">
      <path d="M 58.43 43.986392 
L 709.2 43.986392 
" clip-path="url(#p24e9b7699a)" style="fill: none; stroke: #b0b0b0; stroke-width: 0.8; stroke-linecap: square"/>
     </g>
     <g id="line2d_28">
      <g>
       <use xlink:href="#m5e7b3ed167" x="58.43" y="43.986392" style="stroke: #000000; stroke-width: 0.8"/>
      </g>
     </g>
     <g id="text_15">
      <!-- 100 -->
      <g transform="translate(28.525 48.545455) scale(0.12 -0.12)">
       <use xlink:href="#DejaVuSans-31"/>
       <use xlink:href="#DejaVuSans-30" x="63.623047"/>
       <use xlink:href="#DejaVuSans-30" x="127.246094"/>
      </g>
     </g>
    </g>
    <g id="text_16">
     <!-- Percentage of switched systems (%) -->
     <g transform="translate(21.613438 334.920156) rotate(-90) scale(0.14 -0.14)">
      <defs>
       <path id="DejaVuSans-50" d="M 1259 4147 
L 1259 2394 
L 2053 2394 
Q 2494 2394 2734 2622 
Q 2975 2850 2975 3272 
Q 2975 3691 2734 3919 
Q 2494 4147 2053 4147 
L 1259 4147 
z
M 628 4666 
L 2053 4666 
Q 2838 4666 3239 4311 
Q 3641 3956 3641 3272 
Q 3641 2581 3239 2228 
Q 2838 1875 2053 1875 
L 1259 1875 
L 1259 0 
L 628 0 
L 628 4666 
z
" transform="scale(0.015625)"/>
       <path id="DejaVuSans-72" d="M 2631 2963 
Q 2534 3019 2420 3045 
Q 2306 3072 2169 3072 
Q 1681 3072 1420 2755 
Q 1159 2438 1159 1844 
L 1159 0 
L 581 0 
L 581 3500 
L 1159 3500 
L 1159 2956 
Q 1341 3275 1631 3429 
Q 1922 3584 2338 3584 
Q 2397 3584 2469 3576 
Q 2541 3569 2628 3553 
L 2631 2963 
z
" transform="scale(0.015625)"/>
       <path id="DejaVuSans-63" d="M 3122 3366 
L 3122 2828 
Q 2878 2963 2633 3030 
Q 2388 3097 2138 3097 
Q 1578 3097 1268 2742 
Q 959 2388 959 1747 
Q 959 1106 1268 751 
Q 1578 397 2138 397 
Q 2388 397 2633 464 
Q 2878 531 3122 666 
L 3122 134 
Q 2881 22 2623 -34 
Q 2366 -91 2075 -91 
Q 1284 -91 818 406 
Q 353 903 353 1747 
Q 353 2603 823 3093 
Q 1294 3584 2113 3584 
Q 2378 3584 2631 3529 
Q 2884 3475 3122 3366 
z
" transform="scale(0.015625)"/>
       <path id="DejaVuSans-6e" d="M 3513 2113 
L 3513 0 
L 2938 0 
L 2938 2094 
Q 2938 2591 2744 2837 
Q 2550 3084 2163 3084 
Q 1697 3084 1428 2787 
Q 1159 2491 1159 1978 
L 1159 0 
L 581 0 
L 581 3500 
L 1159 3500 
L 1159 2956 
Q 1366 3272 1645 3428 
Q 1925 3584 2291 3584 
Q 2894 3584 3203 3211 
Q 3513 2838 3513 2113 
z
" transform="scale(0.015625)"/>
       <path id="DejaVuSans-74" d="M 1172 4494 
L 1172 3500 
L 2356 3500 
L 2356 3053 
L 1172 3053 
L 1172 1153 
Q 1172 725 1289 603 
Q 1406 481 1766 481 
L 2356 481 
L 2356 0 
L 1766 0 
Q 1100 0 847 248 
Q 594 497 594 1153 
L 594 3053 
L 172 3053 
L 172 3500 
L 594 3500 
L 594 4494 
L 1172 4494 
z
" transform="scale(0.015625)"/>
       <path id="DejaVuSans-67" d="M 2906 1791 
Q 2906 2416 2648 2759 
Q 2391 3103 1925 3103 
Q 1463 3103 1205 2759 
Q 947 2416 947 1791 
Q 947 1169 1205 825 
Q 1463 481 1925 481 
Q 2391 481 2648 825 
Q 2906 1169 2906 1791 
z
M 3481 434 
Q 3481 -459 3084 -895 
Q 2688 -1331 1869 -1331 
Q 1566 -1331 1297 -1286 
Q 1028 -1241 775 -1147 
L 775 -588 
Q 1028 -725 1275 -790 
Q 1522 -856 1778 -856 
Q 2344 -856 2625 -561 
Q 2906 -266 2906 331 
L 2906 616 
Q 2728 306 2450 153 
Q 2172 0 1784 0 
Q 1141 0 747 490 
Q 353 981 353 1791 
Q 353 2603 747 3093 
Q 1141 3584 1784 3584 
Q 2172 3584 2450 3431 
Q 2728 3278 2906 2969 
L 2906 3500 
L 3481 3500 
L 3481 434 
z
" transform="scale(0.015625)"/>
       <path id="DejaVuSans-6f" d="M 1959 3097 
Q 1497 3097 1228 2736 
Q 959 2375 959 1747 
Q 959 1119 1226 758 
Q 1494 397 1959 397 
Q 2419 397 2687 759 
Q 2956 1122 2956 1747 
Q 2956 2369 2687 2733 
Q 2419 3097 1959 3097 
z
M 1959 3584 
Q 2709 3584 3137 3096 
Q 3566 2609 3566 1747 
Q 3566 888 3137 398 
Q 2709 -91 1959 -91 
Q 1206 -91 779 398 
Q 353 888 353 1747 
Q 353 2609 779 3096 
Q 1206 3584 1959 3584 
z
" transform="scale(0.015625)"/>
       <path id="DejaVuSans-66" d="M 2375 4863 
L 2375 4384 
L 1825 4384 
Q 1516 4384 1395 4259 
Q 1275 4134 1275 3809 
L 1275 3500 
L 2222 3500 
L 2222 3053 
L 1275 3053 
L 1275 0 
L 697 0 
L 697 3053 
L 147 3053 
L 147 3500 
L 697 3500 
L 697 3744 
Q 697 4328 969 4595 
Q 1241 4863 1831 4863 
L 2375 4863 
z
" transform="scale(0.015625)"/>
       <path id="DejaVuSans-77" d="M 269 3500 
L 844 3500 
L 1563 769 
L 2278 3500 
L 2956 3500 
L 3675 769 
L 4391 3500 
L 4966 3500 
L 4050 0 
L 3372 0 
L 2619 2869 
L 1863 0 
L 1184 0 
L 269 3500 
z
" transform="scale(0.015625)"/>
       <path id="DejaVuSans-69" d="M 603 3500 
L 1178 3500 
L 1178 0 
L 603 0 
L 603 3500 
z
M 603 4863 
L 1178 4863 
L 1178 4134 
L 603 4134 
L 603 4863 
z
" transform="scale(0.015625)"/>
       <path id="DejaVuSans-68" d="M 3513 2113 
L 3513 0 
L 2938 0 
L 2938 2094 
Q 2938 2591 2744 2837 
Q 2550 3084 2163 3084 
Q 1697 3084 1428 2787 
Q 1159 2491 1159 1978 
L 1159 0 
L 581 0 
L 581 4863 
L 1159 4863 
L 1159 2956 
Q 1366 3272 1645 3428 
Q 1925 3584 2291 3584 
Q 2894 3584 3203 3211 
Q 3513 2838 3513 2113 
z
" transform="scale(0.015625)"/>
       <path id="DejaVuSans-64" d="M 2906 2969 
L 2906 4863 
L 3481 4863 
L 3481 0 
L 2906 0 
L 2906 525 
Q 2725 213 2448 61 
Q 2172 -91 1784 -91 
Q 1150 -91 751 415 
Q 353 922 353 1747 
Q 353 2572 751 3078 
Q 1150 3584 1784 3584 
Q 2172 3584 2448 3432 
Q 2725 3281 2906 2969 
z
M 947 1747 
Q 947 1113 1208 752 
Q 1469 391 1925 391 
Q 2381 391 2643 752 
Q 2906 1113 2906 1747 
Q 2906 2381 2643 2742 
Q 2381 3103 1925 3103 
Q 1469 3103 1208 2742 
Q 947 2381 947 1747 
z
" transform="scale(0.015625)"/>
       <path id="DejaVuSans-79" d="M 2059 -325 
Q 1816 -950 1584 -1140 
Q 1353 -1331 966 -1331 
L 506 -1331 
L 506 -850 
L 844 -850 
Q 1081 -850 1212 -737 
Q 1344 -625 1503 -206 
L 1606 56 
L 191 3500 
L 800 3500 
L 1894 763 
L 2988 3500 
L 3597 3500 
L 2059 -325 
z
" transform="scale(0.015625)"/>
       <path id="DejaVuSans-6d" d="M 3328 2828 
Q 3544 3216 3844 3400 
Q 4144 3584 4550 3584 
Q 5097 3584 5394 3201 
Q 5691 2819 5691 2113 
L 5691 0 
L 5113 0 
L 5113 2094 
Q 5113 2597 4934 2840 
Q 4756 3084 4391 3084 
Q 3944 3084 3684 2787 
Q 3425 2491 3425 1978 
L 3425 0 
L 2847 0 
L 2847 2094 
Q 2847 2600 2669 2842 
Q 2491 3084 2119 3084 
Q 1678 3084 1418 2786 
Q 1159 2488 1159 1978 
L 1159 0 
L 581 0 
L 581 3500 
L 1159 3500 
L 1159 2956 
Q 1356 3278 1631 3431 
Q 1906 3584 2284 3584 
Q 2666 3584 2933 3390 
Q 3200 3197 3328 2828 
z
" transform="scale(0.015625)"/>
       <path id="DejaVuSans-28" d="M 1984 4856 
Q 1566 4138 1362 3434 
Q 1159 2731 1159 2009 
Q 1159 1288 1364 580 
Q 1569 -128 1984 -844 
L 1484 -844 
Q 1016 -109 783 600 
Q 550 1309 550 2009 
Q 550 2706 781 3412 
Q 1013 4119 1484 4856 
L 1984 4856 
z
" transform="scale(0.015625)"/>
       <path id="DejaVuSans-25" d="M 4653 2053 
Q 4381 2053 4226 1822 
Q 4072 1591 4072 1178 
Q 4072 772 4226 539 
Q 4381 306 4653 306 
Q 4919 306 5073 539 
Q 5228 772 5228 1178 
Q 5228 1588 5073 1820 
Q 4919 2053 4653 2053 
z
M 4653 2450 
Q 5147 2450 5437 2106 
Q 5728 1763 5728 1178 
Q 5728 594 5436 251 
Q 5144 -91 4653 -91 
Q 4153 -91 3862 251 
Q 3572 594 3572 1178 
Q 3572 1766 3864 2108 
Q 4156 2450 4653 2450 
z
M 1428 4353 
Q 1159 4353 1004 4120 
Q 850 3888 850 3481 
Q 850 3069 1003 2837 
Q 1156 2606 1428 2606 
Q 1700 2606 1854 2837 
Q 2009 3069 2009 3481 
Q 2009 3884 1853 4118 
Q 1697 4353 1428 4353 
z
M 4250 4750 
L 4750 4750 
L 1831 -91 
L 1331 -91 
L 4250 4750 
z
M 1428 4750 
Q 1922 4750 2215 4408 
Q 2509 4066 2509 3481 
Q 2509 2891 2217 2550 
Q 1925 2209 1428 2209 
Q 931 2209 642 2551 
Q 353 2894 353 3481 
Q 353 4063 643 4406 
Q 934 4750 1428 4750 
z
" transform="scale(0.015625)"/>
       <path id="DejaVuSans-29" d="M 513 4856 
L 1013 4856 
Q 1481 4119 1714 3412 
Q 1947 2706 1947 2009 
Q 1947 1309 1714 600 
Q 1481 -109 1013 -844 
L 513 -844 
Q 928 -128 1133 580 
Q 1338 1288 1338 2009 
Q 1338 2731 1133 3434 
Q 928 4138 513 4856 
z
" transform="scale(0.015625)"/>
      </defs>
      <use xlink:href="#DejaVuSans-50"/>
      <use xlink:href="#DejaVuSans-65" x="56.677734"/>
      <use xlink:href="#DejaVuSans-72" x="118.201172"/>
      <use xlink:href="#DejaVuSans-63" x="157.064453"/>
      <use xlink:href="#DejaVuSans-65" x="212.044922"/>
      <use xlink:href="#DejaVuSans-6e" x="273.568359"/>
      <use xlink:href="#DejaVuSans-74" x="336.947266"/>
      <use xlink:href="#DejaVuSans-61" x="376.15625"/>
      <use xlink:href="#DejaVuSans-67" x="437.435547"/>
      <use xlink:href="#DejaVuSans-65" x="500.912109"/>
      <use xlink:href="#DejaVuSans-20" x="562.435547"/>
      <use xlink:href="#DejaVuSans-6f" x="594.222656"/>
      <use xlink:href="#DejaVuSans-66" x="655.404297"/>
      <use xlink:href="#DejaVuSans-20" x="690.609375"/>
      <use xlink:href="#DejaVuSans-73" x="722.396484"/>
      <use xlink:href="#DejaVuSans-77" x="774.496094"/>
      <use xlink:href="#DejaVuSans-69" x="856.283203"/>
      <use xlink:href="#DejaVuSans-74" x="884.066406"/>
      <use xlink:href="#DejaVuSans-63" x="923.275391"/>
      <use xlink:href="#DejaVuSans-68" x="978.255859"/>
      <use xlink:href="#DejaVuSans-65" x="1041.634766"/>
      <use xlink:href="#DejaVuSans-64" x="1103.158203"/>
      <use xlink:href="#DejaVuSans-20" x="1166.634766"/>
      <use xlink:href="#DejaVuSans-73" x="1198.421875"/>
      <use xlink:href="#DejaVuSans-79" x="1250.521484"/>
      <use xlink:href="#DejaVuSans-73" x="1309.701172"/>
      <use xlink:href="#DejaVuSans-74" x="1361.800781"/>
      <use xlink:href="#DejaVuSans-65" x="1401.009766"/>
      <use xlink:href="#DejaVuSans-6d" x="1462.533203"/>
      <use xlink:href="#DejaVuSans-73" x="1559.945312"/>
      <use xlink:href="#DejaVuSans-20" x="1612.044922"/>
      <use xlink:href="#DejaVuSans-28" x="1643.832031"/>
      <use xlink:href="#DejaVuSans-25" x="1682.845703"/>
      <use xlink:href="#DejaVuSans-29" x="1777.865234"/>
     </g>
    </g>
   </g>
   <g id="line2d_29">
    <path d="M 88.010455 369.54 
L 111.734127 369.321968 
L 128.044152 368.95981 
L 141.388718 368.458454 
L 153.250555 367.803901 
L 163.629662 367.029869 
L 174.008769 366.030934 
L 182.905146 364.967443 
L 191.801523 363.686998 
L 200.6979 362.164885 
L 208.111548 360.693983 
L 215.525196 359.023918 
L 222.938844 357.140916 
L 230.352491 355.031765 
L 237.766139 352.684025 
L 245.179787 350.086242 
L 252.593435 347.228165 
L 260.007082 344.100964 
L 267.42073 340.697438 
L 274.834378 337.012211 
L 282.248026 333.041913 
L 289.661674 328.78533 
L 297.075321 324.243527 
L 304.488969 319.419936 
L 311.902617 314.320402 
L 319.316265 308.953186 
L 326.729912 303.328922 
L 334.14356 297.460526 
L 343.039937 290.117557 
L 351.936315 282.474593 
L 362.315422 273.223231 
L 372.694528 263.666768 
L 384.556365 252.450703 
L 400.86639 236.685028 
L 443.865547 194.906326 
L 457.210113 182.334548 
L 469.071949 171.456952 
L 479.451056 162.211793 
L 489.830163 153.251146 
L 500.20927 144.597548 
L 510.588377 136.268018 
L 519.484754 129.395512 
L 528.381131 122.77471 
L 537.277509 116.408143 
L 546.173886 110.296337 
L 555.070263 104.438062 
L 563.96664 98.830567 
L 572.863018 93.469806 
L 581.759395 88.350657 
L 590.655772 83.467111 
L 599.55215 78.812453 
L 608.448527 74.379426 
L 618.827634 69.477439 
L 629.206741 64.854044 
L 639.585848 60.496324 
L 649.964954 56.391269 
L 660.344061 52.525932 
L 670.723168 48.887557 
L 679.619545 45.940136 
L 679.619545 45.940136 
" clip-path="url(#p24e9b7699a)" style="fill: none; stroke-dasharray: 5.55,2.4; stroke-dashoffset: 0; stroke: #000000; stroke-width: 1.5"/>
   </g>
   <g id="patch_3">
    <path d="M 58.43 385.72 
L 58.43 29.76 
" style="fill: none; stroke: #000000; stroke-width: 0.8; stroke-linejoin: miter; stroke-linecap: square"/>
   </g>
   <g id="patch_4">
    <path d="M 709.2 385.72 
L 709.2 29.76 
" style="fill: none; stroke: #000000; stroke-width: 0.8; stroke-linejoin: miter; stroke-linecap: square"/>
   </g>
   <g id="patch_5">
    <path d="M 58.43 385.72 
L 709.2 385.72 
" style="fill: none; stroke: #000000; stroke-width: 0.8; stroke-linejoin: miter; stroke-linecap: square"/>
   </g>
   <g id="patch_6">
    <path d="M 58.43 29.76 
L 709.2 29.76 
" style="fill: none; stroke: #000000; stroke-width: 0.8; stroke-linejoin: miter; stroke-linecap: square"/>
   </g>
   <g id="text_17">
    <!-- Percentage of switched systems vs s value -->
    <g transform="translate(212.3025 23.76) scale(0.16 -0.16)">
     <use xlink:href="#DejaVuSans-50"/>
     <use xlink:href="#DejaVuSans-65" x="56.677734"/>
     <use xlink:href="#DejaVuSans-72" x="118.201172"/>
     <use xlink:href="#DejaVuSans-63" x="157.064453"/>
     <use xlink:href="#DejaVuSans-65" x="212.044922"/>
     <use xlink:href="#DejaVuSans-6e" x="273.568359"/>
     <use xlink:href="#DejaVuSans-74" x="336.947266"/>
     <use xlink:href="#DejaVuSans-61" x="376.15625"/>
     <use xlink:href="#DejaVuSans-67" x="437.435547"/>
     <use xlink:href="#DejaVuSans-65" x="500.912109"/>
     <use xlink:href="#DejaVuSans-20" x="562.435547"/>
     <use xlink:href="#DejaVuSans-6f" x="594.222656"/>
     <use xlink:href="#DejaVuSans-66" x="655.404297"/>
     <use xlink:href="#DejaVuSans-20" x="690.609375"/>
     <use xlink:href="#DejaVuSans-73" x="722.396484"/>
     <use xlink:href="#DejaVuSans-77" x="774.496094"/>
     <use xlink:href="#DejaVuSans-69" x="856.283203"/>
     <use xlink:href="#DejaVuSans-74" x="884.066406"/>
     <use xlink:href="#DejaVuSans-63" x="923.275391"/>
     <use xlink:href="#DejaVuSans-68" x="978.255859"/>
     <use xlink:href="#DejaVuSans-65" x="1041.634766"/>
     <use xlink:href="#DejaVuSans-64" x="1103.158203"/>
     <use xlink:href="#DejaVuSans-20" x="1166.634766"/>
     <use xlink:href="#DejaVuSans-73" x="1198.421875"/>
     <use xlink:href="#DejaVuSans-79" x="1250.521484"/>
     <use xlink:href="#DejaVuSans-73" x="1309.701172"/>
     <use xlink:href="#DejaVuSans-74" x="1361.800781"/>
     <use xlink:href="#DejaVuSans-65" x="1401.009766"/>
     <use xlink:href="#DejaVuSans-6d" x="1462.533203"/>
     <use xlink:href="#DejaVuSans-73" x="1559.945312"/>
     <use xlink:href="#DejaVuSans-20" x="1612.044922"/>
     <use xlink:href="#DejaVuSans-76" x="1643.832031"/>
     <use xlink:href="#DejaVuSans-73" x="1703.011719"/>
     <use xlink:href="#DejaVuSans-20" x="1755.111328"/>
     <use xlink:href="#DejaVuSans-73" x="1786.898438"/>
     <use xlink:href="#DejaVuSans-20" x="1838.998047"/>
     <use xlink:href="#DejaVuSans-76" x="1870.785156"/>
     <use xlink:href="#DejaVuSans-61" x="1929.964844"/>
     <use xlink:href="#DejaVuSans-6c" x="1991.244141"/>
     <use xlink:href="#DejaVuSans-75" x="2019.027344"/>
     <use xlink:href="#DejaVuSans-65" x="2082.40625"/>
    </g>
   </g>
   <g id="legend_1">
    <g id="patch_7">
     <path d="M 66.83 82.65375 
L 521.99 82.65375 
Q 524.39 82.65375 524.39 80.25375 
L 524.39 38.16 
Q 524.39 35.76 521.99 35.76 
L 66.83 35.76 
Q 64.43 35.76 64.43 38.16 
L 64.43 80.25375 
Q 64.43 82.65375 66.83 82.65375 
z
" style="fill: #ffffff; opacity: 0.8; stroke: #cccccc; stroke-linejoin: miter"/>
    </g>
    <g id="PathCollection_2">
     <path d="M 81.23 49.528125 
C 82.025609 49.528125 82.78874 49.212026 83.35132 48.649445 
C 83.913901 48.086865 84.23 47.323734 84.23 46.528125 
C 84.23 45.732516 83.913901 44.969385 83.35132 44.406805 
C 82.78874 43.844224 82.025609 43.528125 81.23 43.528125 
C 80.434391 43.528125 79.67126 43.844224 79.10868 44.406805 
C 78.546099 44.969385 78.23 45.732516 78.23 46.528125 
C 78.23 47.323734 78.546099 48.086865 79.10868 48.649445 
C 79.67126 49.212026 80.434391 49.528125 81.23 49.528125 
L 81.23 49.528125 
z
" style="fill: none; stroke: #ff0000"/>
    </g>
    <g id="text_18">
     <!-- Simulated Data -->
     <g transform="translate(102.83 49.678125) scale(0.12 -0.12)">
      <defs>
       <path id="DejaVuSans-53" d="M 3425 4513 
L 3425 3897 
Q 3066 4069 2747 4153 
Q 2428 4238 2131 4238 
Q 1616 4238 1336 4038 
Q 1056 3838 1056 3469 
Q 1056 3159 1242 3001 
Q 1428 2844 1947 2747 
L 2328 2669 
Q 3034 2534 3370 2195 
Q 3706 1856 3706 1288 
Q 3706 609 3251 259 
Q 2797 -91 1919 -91 
Q 1588 -91 1214 -16 
Q 841 59 441 206 
L 441 856 
Q 825 641 1194 531 
Q 1563 422 1919 422 
Q 2459 422 2753 634 
Q 3047 847 3047 1241 
Q 3047 1584 2836 1778 
Q 2625 1972 2144 2069 
L 1759 2144 
Q 1053 2284 737 2584 
Q 422 2884 422 3419 
Q 422 4038 858 4394 
Q 1294 4750 2059 4750 
Q 2388 4750 2728 4690 
Q 3069 4631 3425 4513 
z
" transform="scale(0.015625)"/>
       <path id="DejaVuSans-44" d="M 1259 4147 
L 1259 519 
L 2022 519 
Q 2988 519 3436 956 
Q 3884 1394 3884 2338 
Q 3884 3275 3436 3711 
Q 2988 4147 2022 4147 
L 1259 4147 
z
M 628 4666 
L 1925 4666 
Q 3281 4666 3915 4102 
Q 4550 3538 4550 2338 
Q 4550 1131 3912 565 
Q 3275 0 1925 0 
L 628 0 
L 628 4666 
z
" transform="scale(0.015625)"/>
      </defs>
      <use xlink:href="#DejaVuSans-53"/>
      <use xlink:href="#DejaVuSans-69" x="63.476562"/>
      <use xlink:href="#DejaVuSans-6d" x="91.259766"/>
      <use xlink:href="#DejaVuSans-75" x="188.671875"/>
      <use xlink:href="#DejaVuSans-6c" x="252.050781"/>
      <use xlink:href="#DejaVuSans-61" x="279.833984"/>
      <use xlink:href="#DejaVuSans-74" x="341.113281"/>
      <use xlink:href="#DejaVuSans-65" x="380.322266"/>
      <use xlink:href="#DejaVuSans-64" x="441.845703"/>
      <use xlink:href="#DejaVuSans-20" x="505.322266"/>
      <use xlink:href="#DejaVuSans-44" x="537.109375"/>
      <use xlink:href="#DejaVuSans-61" x="614.111328"/>
      <use xlink:href="#DejaVuSans-74" x="675.390625"/>
      <use xlink:href="#DejaVuSans-61" x="714.599609"/>
     </g>
    </g>
    <g id="line2d_30">
     <path d="M 69.23 67.17375 
L 81.23 67.17375 
L 93.23 67.17375 
" style="fill: none; stroke-dasharray: 5.55,2.4; stroke-dashoffset: 0; stroke: #000000; stroke-width: 1.5"/>
    </g>
    <g id="text_19">
     <!-- Hill function   $100.0\cdot\frac{ A \cdot (s-s_0)}{B^n + (s-s_0)^n}$  (A=1.2277, B=0.248, s0=1.474, n=4) -->
     <g transform="translate(102.83 71.37375) scale(0.12 -0.12)">
      <defs>
       <path id="DejaVuSans-48" d="M 628 4666 
L 1259 4666 
L 1259 2753 
L 3553 2753 
L 3553 4666 
L 4184 4666 
L 4184 0 
L 3553 0 
L 3553 2222 
L 1259 2222 
L 1259 0 
L 628 0 
L 628 4666 
z
" transform="scale(0.015625)"/>
       <path id="DejaVuSans-22c5" d="M 684 2619 
L 1344 2619 
L 1344 1825 
L 684 1825 
L 684 2619 
z
" transform="scale(0.015625)"/>
       <path id="DejaVuSans-Oblique-41" d="M 2356 4666 
L 3072 4666 
L 3938 0 
L 3278 0 
L 3084 1197 
L 984 1197 
L 325 0 
L -341 0 
L 2356 4666 
z
M 2584 4044 
L 1275 1722 
L 2988 1722 
L 2584 4044 
z
" transform="scale(0.015625)"/>
       <path id="DejaVuSans-Oblique-73" d="M 3200 3397 
L 3091 2853 
Q 2863 2978 2609 3040 
Q 2356 3103 2088 3103 
Q 1634 3103 1373 2948 
Q 1113 2794 1113 2528 
Q 1113 2219 1719 2053 
Q 1766 2041 1788 2034 
L 1972 1978 
Q 2547 1819 2739 1644 
Q 2931 1469 2931 1166 
Q 2931 609 2489 259 
Q 2047 -91 1331 -91 
Q 1053 -91 747 -37 
Q 441 16 72 128 
L 184 722 
Q 500 559 806 475 
Q 1113 391 1394 391 
Q 1816 391 2080 572 
Q 2344 753 2344 1031 
Q 2344 1331 1650 1516 
L 1591 1531 
L 1394 1581 
Q 956 1697 753 1886 
Q 550 2075 550 2369 
Q 550 2928 970 3256 
Q 1391 3584 2113 3584 
Q 2397 3584 2667 3537 
Q 2938 3491 3200 3397 
z
" transform="scale(0.015625)"/>
       <path id="DejaVuSans-2212" d="M 678 2272 
L 4684 2272 
L 4684 1741 
L 678 1741 
L 678 2272 
z
" transform="scale(0.015625)"/>
       <path id="DejaVuSans-Oblique-42" d="M 1081 4666 
L 2694 4666 
Q 3350 4666 3675 4422 
Q 4000 4178 4000 3688 
Q 4000 3238 3720 2911 
Q 3441 2584 2988 2516 
Q 3375 2428 3569 2181 
Q 3763 1934 3763 1522 
Q 3763 819 3242 409 
Q 2722 0 1819 0 
L 172 0 
L 1081 4666 
z
M 1234 2228 
L 903 519 
L 1919 519 
Q 2491 519 2800 781 
Q 3109 1044 3109 1522 
Q 3109 1891 2904 2059 
Q 2700 2228 2247 2228 
L 1234 2228 
z
M 1606 4147 
L 1331 2741 
L 2272 2741 
Q 2775 2741 3058 2959 
Q 3341 3178 3341 3566 
Q 3341 3869 3150 4008 
Q 2959 4147 2541 4147 
L 1606 4147 
z
" transform="scale(0.015625)"/>
       <path id="DejaVuSans-Oblique-6e" d="M 3566 2113 
L 3156 0 
L 2578 0 
L 2988 2091 
Q 3016 2238 3031 2350 
Q 3047 2463 3047 2528 
Q 3047 2791 2881 2937 
Q 2716 3084 2419 3084 
Q 1956 3084 1622 2776 
Q 1288 2469 1184 1941 
L 800 0 
L 225 0 
L 903 3500 
L 1478 3500 
L 1363 2950 
Q 1603 3253 1940 3418 
Q 2278 3584 2650 3584 
Q 3113 3584 3367 3334 
Q 3622 3084 3622 2631 
Q 3622 2519 3608 2391 
Q 3594 2263 3566 2113 
z
" transform="scale(0.015625)"/>
       <path id="DejaVuSans-2b" d="M 2944 4013 
L 2944 2272 
L 4684 2272 
L 4684 1741 
L 2944 1741 
L 2944 0 
L 2419 0 
L 2419 1741 
L 678 1741 
L 678 2272 
L 2419 2272 
L 2419 4013 
L 2944 4013 
z
" transform="scale(0.015625)"/>
       <path id="DejaVuSans-41" d="M 2188 4044 
L 1331 1722 
L 3047 1722 
L 2188 4044 
z
M 1831 4666 
L 2547 4666 
L 4325 0 
L 3669 0 
L 3244 1197 
L 1141 1197 
L 716 0 
L 50 0 
L 1831 4666 
z
" transform="scale(0.015625)"/>
       <path id="DejaVuSans-3d" d="M 678 2906 
L 4684 2906 
L 4684 2381 
L 678 2381 
L 678 2906 
z
M 678 1631 
L 4684 1631 
L 4684 1100 
L 678 1100 
L 678 1631 
z
" transform="scale(0.015625)"/>
       <path id="DejaVuSans-2c" d="M 750 794 
L 1409 794 
L 1409 256 
L 897 -744 
L 494 -744 
L 750 256 
L 750 794 
z
" transform="scale(0.015625)"/>
       <path id="DejaVuSans-42" d="M 1259 2228 
L 1259 519 
L 2272 519 
Q 2781 519 3026 730 
Q 3272 941 3272 1375 
Q 3272 1813 3026 2020 
Q 2781 2228 2272 2228 
L 1259 2228 
z
M 1259 4147 
L 1259 2741 
L 2194 2741 
Q 2656 2741 2882 2914 
Q 3109 3088 3109 3444 
Q 3109 3797 2882 3972 
Q 2656 4147 2194 4147 
L 1259 4147 
z
M 628 4666 
L 2241 4666 
Q 2963 4666 3353 4366 
Q 3744 4066 3744 3513 
Q 3744 3084 3544 2831 
Q 3344 2578 2956 2516 
Q 3422 2416 3680 2098 
Q 3938 1781 3938 1306 
Q 3938 681 3513 340 
Q 3088 0 2303 0 
L 628 0 
L 628 4666 
z
" transform="scale(0.015625)"/>
      </defs>
      <use xlink:href="#DejaVuSans-48" transform="translate(0 0.909531)"/>
      <use xlink:href="#DejaVuSans-69" transform="translate(75.195312 0.909531)"/>
      <use xlink:href="#DejaVuSans-6c" transform="translate(102.978516 0.909531)"/>
      <use xlink:href="#DejaVuSans-6c" transform="translate(130.761719 0.909531)"/>
      <use xlink:href="#DejaVuSans-20" transform="translate(158.544922 0.909531)"/>
      <use xlink:href="#DejaVuSans-66" transform="translate(190.332031 0.909531)"/>
      <use xlink:href="#DejaVuSans-75" transform="translate(225.537109 0.909531)"/>
      <use xlink:href="#DejaVuSans-6e" transform="translate(288.916016 0.909531)"/>
      <use xlink:href="#DejaVuSans-63" transform="translate(352.294922 0.909531)"/>
      <use xlink:href="#DejaVuSans-74" transform="translate(407.275391 0.909531)"/>
      <use xlink:href="#DejaVuSans-69" transform="translate(446.484375 0.909531)"/>
      <use xlink:href="#DejaVuSans-6f" transform="translate(474.267578 0.909531)"/>
      <use xlink:href="#DejaVuSans-6e" transform="translate(535.449219 0.909531)"/>
      <use xlink:href="#DejaVuSans-20" transform="translate(598.828125 0.909531)"/>
      <use xlink:href="#DejaVuSans-20" transform="translate(630.615234 0.909531)"/>
      <use xlink:href="#DejaVuSans-20" transform="translate(662.402344 0.909531)"/>
      <use xlink:href="#DejaVuSans-31" transform="translate(694.189453 0.909531)"/>
      <use xlink:href="#DejaVuSans-30" transform="translate(757.8125 0.909531)"/>
      <use xlink:href="#DejaVuSans-30" transform="translate(821.435547 0.909531)"/>
      <use xlink:href="#DejaVuSans-2e" transform="translate(885.058594 0.909531)"/>
      <use xlink:href="#DejaVuSans-30" transform="translate(916.845703 0.909531)"/>
      <use xlink:href="#DejaVuSans-22c5" transform="translate(999.951172 0.909531)"/>
      <use xlink:href="#DejaVuSans-Oblique-41" transform="translate(1105.220703 56.8875) scale(0.7)"/>
      <use xlink:href="#DejaVuSans-22c5" transform="translate(1166.744141 56.8875) scale(0.7)"/>
      <use xlink:href="#DejaVuSans-28" transform="translate(1202.632812 56.8875) scale(0.7)"/>
      <use xlink:href="#DejaVuSans-Oblique-73" transform="translate(1229.942383 56.8875) scale(0.7)"/>
      <use xlink:href="#DejaVuSans-2212" transform="translate(1280.049805 56.8875) scale(0.7)"/>
      <use xlink:href="#DejaVuSans-Oblique-73" transform="translate(1352.339844 56.8875) scale(0.7)"/>
      <use xlink:href="#DejaVuSans-30" transform="translate(1388.80957 45.403125) scale(0.49)"/>
      <use xlink:href="#DejaVuSans-29" transform="translate(1421.898926 56.8875) scale(0.7)"/>
      <use xlink:href="#DejaVuSans-Oblique-42" transform="translate(1051.220703 -40.780469) scale(0.7)"/>
      <use xlink:href="#DejaVuSans-Oblique-6e" transform="translate(1104.154904 -13.983594) scale(0.49)"/>
      <use xlink:href="#DejaVuSans-2b" transform="translate(1150.762326 -40.780469) scale(0.7)"/>
      <use xlink:href="#DejaVuSans-28" transform="translate(1223.052365 -40.780469) scale(0.7)"/>
      <use xlink:href="#DejaVuSans-Oblique-73" transform="translate(1250.361935 -40.780469) scale(0.7)"/>
      <use xlink:href="#DejaVuSans-2212" transform="translate(1300.469357 -40.780469) scale(0.7)"/>
      <use xlink:href="#DejaVuSans-Oblique-73" transform="translate(1372.759396 -40.780469) scale(0.7)"/>
      <use xlink:href="#DejaVuSans-30" transform="translate(1409.229122 -52.264844) scale(0.49)"/>
      <use xlink:href="#DejaVuSans-29" transform="translate(1442.318478 -40.780469) scale(0.7)"/>
      <use xlink:href="#DejaVuSans-Oblique-6e" transform="translate(1470.29797 -13.983594) scale(0.49)"/>
      <use xlink:href="#DejaVuSans-20" transform="translate(1515.767697 0.909531)"/>
      <use xlink:href="#DejaVuSans-20" transform="translate(1547.554806 0.909531)"/>
      <use xlink:href="#DejaVuSans-28" transform="translate(1579.341915 0.909531)"/>
      <use xlink:href="#DejaVuSans-41" transform="translate(1618.355587 0.909531)"/>
      <use xlink:href="#DejaVuSans-3d" transform="translate(1686.76379 0.909531)"/>
      <use xlink:href="#DejaVuSans-31" transform="translate(1770.552853 0.909531)"/>
      <use xlink:href="#DejaVuSans-2e" transform="translate(1834.1759 0.909531)"/>
      <use xlink:href="#DejaVuSans-32" transform="translate(1860.463009 0.909531)"/>
      <use xlink:href="#DejaVuSans-32" transform="translate(1924.086056 0.909531)"/>
      <use xlink:href="#DejaVuSans-37" transform="translate(1987.709103 0.909531)"/>
      <use xlink:href="#DejaVuSans-37" transform="translate(2049.58215 0.909531)"/>
      <use xlink:href="#DejaVuSans-2c" transform="translate(2113.205197 0.909531)"/>
      <use xlink:href="#DejaVuSans-20" transform="translate(2144.992306 0.909531)"/>
      <use xlink:href="#DejaVuSans-42" transform="translate(2176.779415 0.909531)"/>
      <use xlink:href="#DejaVuSans-3d" transform="translate(2245.382931 0.909531)"/>
      <use xlink:href="#DejaVuSans-30" transform="translate(2329.171993 0.909531)"/>
      <use xlink:href="#DejaVuSans-2e" transform="translate(2392.79504 0.909531)"/>
      <use xlink:href="#DejaVuSans-32" transform="translate(2419.08215 0.909531)"/>
      <use xlink:href="#DejaVuSans-34" transform="translate(2482.705197 0.909531)"/>
      <use xlink:href="#DejaVuSans-38" transform="translate(2546.328243 0.909531)"/>
      <use xlink:href="#DejaVuSans-2c" transform="translate(2609.95129 0.909531)"/>
      <use xlink:href="#DejaVuSans-20" transform="translate(2641.7384 0.909531)"/>
      <use xlink:href="#DejaVuSans-73" transform="translate(2673.525509 0.909531)"/>
      <use xlink:href="#DejaVuSans-30" transform="translate(2725.625118 0.909531)"/>
      <use xlink:href="#DejaVuSans-3d" transform="translate(2789.248165 0.909531)"/>
      <use xlink:href="#DejaVuSans-31" transform="translate(2873.037228 0.909531)"/>
      <use xlink:href="#DejaVuSans-2e" transform="translate(2936.660275 0.909531)"/>
      <use xlink:href="#DejaVuSans-34" transform="translate(2968.447384 0.909531)"/>
      <use xlink:href="#DejaVuSans-37" transform="translate(3032.070431 0.909531)"/>
      <use xlink:href="#DejaVuSans-34" transform="translate(3095.693478 0.909531)"/>
      <use xlink:href="#DejaVuSans-2c" transform="translate(3159.316525 0.909531)"/>
      <use xlink:href="#DejaVuSans-20" transform="translate(3191.103634 0.909531)"/>
      <use xlink:href="#DejaVuSans-6e" transform="translate(3222.890743 0.909531)"/>
      <use xlink:href="#DejaVuSans-3d" transform="translate(3286.26965 0.909531)"/>
      <use xlink:href="#DejaVuSans-34" transform="translate(3370.058712 0.909531)"/>
      <use xlink:href="#DejaVuSans-29" transform="translate(3433.681759 0.909531)"/>
      <path d="M 1051.220703 19.706406 
L 1051.220703 25.956406 
L 1503.267697 25.956406 
L 1503.267697 19.706406 
L 1051.220703 19.706406 
z
"/>
     </g>
    </g>
   </g>
  </g>
 </g>
 <defs>
  <clipPath id="p24e9b7699a">
   <rect x="58.43" y="29.76" width="650.77" height="355.96"/>
  </clipPath>
 </defs>
</svg>
